G04 DipTrace 3.3.1.3*
G04 TopMask.gbr*
%MOIN*%
G04 #@! TF.FileFunction,Soldermask,Top*
G04 #@! TF.Part,Single*
%ADD16C,0.066929*%
%ADD26C,0.1*%
%ADD27C,0.039*%
%ADD35C,0.066374*%
%ADD37R,0.066374X0.066374*%
%ADD39R,0.049213X0.074803*%
%ADD41O,0.047244X0.066929*%
%ADD43C,0.057874*%
%ADD45C,0.057874*%
%ADD47C,0.072835*%
%ADD50C,0.074803*%
%ADD51R,0.074803X0.074803*%
%FSLAX26Y26*%
G04*
G70*
G90*
G75*
G01*
G04 TopMask*
%LPD*%
D26*
X1374951Y3274950D3*
D27*
X656202Y456201D3*
X1256202D3*
D26*
X493703Y3274950D3*
X493711Y493720D3*
X1374951Y493701D3*
D51*
X1137451Y1981201D3*
D50*
X1037451D3*
X937451D3*
X837451D3*
D16*
X656202Y556202D3*
Y656202D3*
Y756201D3*
Y856202D3*
Y956202D3*
Y1056201D3*
Y1156202D3*
Y1256202D3*
Y1356201D3*
Y1456202D3*
Y1556202D3*
Y1656201D3*
X1256202Y556202D3*
Y656202D3*
Y756201D3*
Y856202D3*
Y956202D3*
Y1056201D3*
Y1156202D3*
Y1256202D3*
Y1356201D3*
Y1456202D3*
Y1556202D3*
Y1656201D3*
X656202Y1756202D3*
Y1856202D3*
X1256202Y1756202D3*
Y1856202D3*
D47*
X881113Y3041555D3*
X1294507Y3041570D3*
Y2785664D3*
X881113Y2785650D3*
X1294499Y2923445D3*
X881121Y2923459D3*
D45*
X656322Y2957110D3*
D43*
Y2657110D3*
D45*
X549953Y2956201D3*
D43*
Y2656201D3*
D45*
X449951Y2956201D3*
D43*
Y2656201D3*
D41*
X499952Y3118699D3*
X599952D3*
D39*
X649952D3*
D41*
X549952D3*
D51*
X1037451Y912450D3*
D50*
X860286D3*
Y656545D3*
X1037451D3*
D37*
X996888Y2496123D3*
D35*
Y2396123D3*
Y2296123D3*
Y2196123D3*
X1296888D3*
Y2296123D3*
Y2396123D3*
Y2496123D3*
D37*
X609399D3*
D35*
Y2396123D3*
Y2296123D3*
Y2196123D3*
X909399D3*
Y2296123D3*
Y2396123D3*
Y2496123D3*
M02*
