G04 DipTrace 3.3.1.3*
G04 Bottom.gbr*
%MOIN*%
G04 #@! TF.FileFunction,Copper,L2,Bot*
G04 #@! TF.Part,Single*
G04 #@! TA.AperFunction,Conductor*
%ADD14C,0.012992*%
G04 #@! TA.AperFunction,ComponentPad*
%ADD15R,0.066929X0.066929*%
%ADD16C,0.066929*%
%ADD17C,0.059055*%
%ADD18C,0.05*%
%ADD19C,0.05*%
%ADD20O,0.03937X0.059055*%
%ADD21R,0.041339X0.066929*%
%ADD23R,0.0585X0.0585*%
%ADD24C,0.0585*%
%ADD25C,0.064961*%
%FSLAX26Y26*%
G04*
G70*
G90*
G75*
G01*
G04 Bottom*
%LPD*%
X996888Y2296123D2*
D14*
Y2196123D1*
Y2296123D2*
X963962Y2342357D1*
X824286D1*
X778052Y2296123D1*
X609399D1*
X1256202Y656202D2*
X1143702Y768702D1*
Y1847560D1*
X1234080Y1947912D1*
Y2018370D1*
X1191244Y2061206D1*
X1063697D1*
X996888Y2128014D1*
Y2196123D1*
X609399Y2296123D2*
Y2196123D1*
X778150Y2296123D2*
X878150Y2396123D1*
X909399D1*
X1296888Y2496123D2*
X869232Y3066333D1*
X886513D1*
X599951Y3118699D2*
Y3224950D1*
X772672D1*
X884690Y3040126D1*
X656202Y656202D2*
Y651280D1*
X499182Y808299D1*
Y1930432D1*
X549951Y1981201D1*
X837451D1*
X881113Y2785650D2*
Y2789024D1*
X1174322Y2409161D1*
Y2163152D1*
X1397638Y1939836D1*
Y1344741D1*
X1256202Y1256202D1*
Y1056201D2*
X1439277Y1200692D1*
Y1964362D1*
X1233281Y2170358D1*
Y2473864D1*
X1055442Y2698508D1*
X881121Y2923459D1*
X996888Y2396123D2*
X962717Y2443465D1*
X812453D1*
X765112Y2396123D1*
X609399D1*
X1256202Y1656201D2*
X1260094Y1658073D1*
X1338535Y1719550D1*
Y1952406D1*
X1141379Y2149562D1*
Y2391072D1*
X1135686Y2399951D1*
X996888Y2496123D1*
Y2546764D1*
X983289Y2560364D1*
X781201D1*
X720787Y2499950D1*
X634736D1*
X609399Y2496123D1*
D15*
X1137451Y1981201D3*
D16*
X1037451D3*
X937451D3*
X837451D3*
D17*
X656202Y556202D3*
Y656202D3*
Y756201D3*
Y856202D3*
Y956202D3*
Y1056201D3*
Y1156202D3*
Y1256202D3*
Y1356201D3*
Y1456202D3*
Y1556202D3*
Y1656201D3*
X1256202Y556202D3*
Y656202D3*
Y756201D3*
Y856202D3*
Y956202D3*
Y1056201D3*
Y1156202D3*
Y1256202D3*
Y1356201D3*
Y1456202D3*
Y1556202D3*
Y1656201D3*
X656202Y1756202D3*
Y1856202D3*
X1256202Y1756202D3*
Y1856202D3*
D18*
X656322Y2957110D3*
D19*
Y2657110D3*
D18*
X549953Y2956201D3*
D19*
Y2656201D3*
D18*
X449951Y2956201D3*
D19*
Y2656201D3*
D20*
X499952Y3118699D3*
X599952D3*
D21*
X649952D3*
D20*
X549952D3*
D15*
X1037451Y912450D3*
D16*
X860286D3*
Y656545D3*
X1037451D3*
D23*
X996888Y2496123D3*
D24*
Y2396123D3*
Y2296123D3*
Y2196123D3*
X1296888D3*
Y2296123D3*
Y2396123D3*
Y2496123D3*
D23*
X609399D3*
D24*
Y2396123D3*
Y2296123D3*
Y2196123D3*
X909399D3*
Y2296123D3*
Y2396123D3*
Y2496123D3*
D25*
X1294507Y3041570D3*
Y2785664D3*
X881121Y2923459D3*
X1294499Y2923445D3*
X881113Y3041555D3*
Y2785650D3*
M02*
