M48
INCH
T01C0.022
T02C0.0295
T03C0.0354
T04C0.039
T05C0.0394
T06C0.0433
T07C0.1
%
T01
X+006563Y+029571
X+005500Y+029562
X+004500Y+029562
X+004500Y+026562
X+005500Y+026562
X+006563Y+026571
T02
X+005000Y+031187
X+005500Y+031187
X+006000Y+031187
X+006500Y+031187
T03
X+006562Y+005562
X+006562Y+006562
X+006562Y+007562
X+006562Y+008562
X+006562Y+009562
X+006562Y+010562
X+006562Y+011562
X+006562Y+012562
X+006562Y+013562
X+006562Y+014562
X+006562Y+015562
X+006562Y+016562
X+006562Y+017562
X+006562Y+018562
X+012562Y+018562
X+012562Y+017562
X+012562Y+016562
X+012562Y+015562
X+012562Y+014562
X+012562Y+013562
X+012562Y+012562
X+012562Y+011562
X+012562Y+010562
X+012562Y+009562
X+012562Y+008562
X+012562Y+007562
X+012562Y+006562
X+012562Y+005562
X+012945Y+027857
X+012945Y+029234
X+012945Y+030416
X+008811Y+030416
X+008811Y+029235
X+008811Y+027856
T04
X+006562Y+004562
X+012562Y+004562
X+012969Y+021961
X+012969Y+022961
X+012969Y+023961
X+012969Y+024961
X+009969Y+024961
X+009094Y+024961
X+009094Y+023961
X+009969Y+023961
X+009969Y+022961
X+009094Y+022961
X+009094Y+021961
X+009969Y+021961
X+006094Y+021961
X+006094Y+022961
X+006094Y+023961
X+006094Y+024961
T05
X+010375Y+009125
X+008603Y+009125
X+008603Y+006565
X+010375Y+006565
T06
X+011375Y+019812
X+010375Y+019812
X+009375Y+019812
X+008375Y+019812
T07
X+013750Y+032750
X+004937Y+032750
X+004937Y+004937
X+013750Y+004937
T00
M30
