G04 DipTrace 3.3.1.3*
G04 Top.gbr*
%MOIN*%
G04 #@! TF.FileFunction,Copper,L1,Top*
G04 #@! TF.Part,Single*
G04 #@! TA.AperFunction,Conductor*
%ADD14C,0.012992*%
G04 #@! TA.AperFunction,ComponentPad*
%ADD15R,0.066929X0.066929*%
%ADD16C,0.066929*%
%ADD17C,0.059055*%
%ADD18C,0.064961*%
%ADD19C,0.05*%
%ADD20C,0.05*%
%ADD21O,0.03937X0.059055*%
%ADD22R,0.041339X0.066929*%
%ADD24R,0.0585X0.0585*%
%ADD25C,0.0585*%
%FSLAX26Y26*%
G04*
G70*
G90*
G75*
G01*
G04 Top*
%LPD*%
X656202Y856202D2*
D14*
X643701D1*
X449951Y1049951D1*
Y2656201D1*
X656202Y1556202D2*
X668815Y1559567D1*
X621585D1*
X591538Y1589614D1*
Y1866924D1*
X792055Y2042261D1*
X1026391D1*
X1037451Y2031201D1*
Y1981201D1*
X909399Y2396123D2*
Y2364874D1*
X924955Y2349318D1*
X1269038D1*
X1296888Y2377168D1*
Y2396123D1*
X499951Y3118699D2*
X499953Y3012450D1*
X449951Y2956201D1*
X549953Y3118699D2*
Y2956201D1*
X649951Y3118699D2*
Y2957110D1*
X656322D1*
X909399Y2496123D2*
Y2533622D1*
X936420Y2560643D1*
X1263824D1*
X1296888Y2527579D1*
Y2496123D1*
X656202Y656202D2*
X859944D1*
X860286Y656545D1*
X1256202Y956202D2*
X1168701D1*
X1121827Y1003076D1*
X1206202Y1087450D1*
X1187451Y1106201D1*
X1099953Y1018701D1*
X1081202Y1037451D1*
X1168702Y1124950D1*
X1149951Y1143701D1*
X1062451Y1056201D1*
X1043702Y1074951D1*
X1134325Y1165575D1*
X1115576Y1184325D1*
X1024951Y1093701D1*
X1006201Y1112450D1*
X1096825Y1203075D1*
X1078076Y1221825D1*
X987451Y1131201D1*
X968701Y1149950D1*
X1059325Y1240575D1*
X1037451Y1262450D1*
Y1287450D1*
X656202Y1056201D2*
X1173298Y1573297D1*
Y1924950D1*
X1212451Y1956201D1*
Y2186482D1*
X1222093Y2196123D1*
X1296888D1*
X656202Y1156202D2*
X712451Y1224951D1*
Y1511886D1*
X594266D1*
X568701Y1537451D1*
Y1874950D1*
X796900Y2196123D1*
X909399D1*
X656202Y1356201D2*
X662451D1*
X521471Y1497181D1*
Y2457936D1*
X614087Y2625501D1*
Y2682572D1*
X658631Y2706822D1*
X1072408D1*
X1171993Y2740392D1*
X1294507Y2780366D1*
Y2785664D1*
X656202Y1256202D2*
X499953Y1412451D1*
Y2461780D1*
X564982Y2578941D1*
X590513Y2626552D1*
Y2736638D1*
X793476Y2845833D1*
X849178Y2860039D1*
X926938D1*
X1087530Y2948249D1*
X1294507Y3041570D1*
X1294499Y2923445D2*
X1355010Y2895091D1*
X1406675Y2871163D1*
Y1592991D1*
X1256202Y1456202D1*
X1037451Y912450D2*
X1081202D1*
X1127290Y866362D1*
Y622612D1*
X1194517Y555385D1*
X1260412D1*
X1256202Y556202D1*
X656202Y1456202D2*
X593701D1*
X543846Y1506056D1*
Y2315769D1*
X571900Y2343823D1*
X668444D1*
X725097Y2400476D1*
Y2625856D1*
X674039Y2653471D1*
X654501D1*
X656322Y2657110D1*
X909399Y2296123D2*
Y2264874D1*
X925602Y2248671D1*
X1268391D1*
X1296888Y2277168D1*
Y2296123D1*
X1256202Y1756202D2*
X1293388D1*
X1354160Y1816974D1*
Y2245307D1*
X1300115Y2299352D1*
X1296888Y2296123D1*
X656202Y1656201D2*
X843702D1*
X1137451Y1949950D1*
Y1981201D1*
X1256202Y1356201D2*
X1316835D1*
X1436415Y1459066D1*
Y3064908D1*
X1347100Y3136528D1*
X1221475D1*
X933751Y2984671D1*
X834096D1*
X698373Y2868643D1*
X631343Y2813932D1*
X550583Y2750971D1*
X549953Y2656201D1*
X1256202Y1156202D2*
X1237451Y1168701D1*
X1182056Y1224096D1*
Y1282055D1*
X1256202Y1356201D1*
Y1556202D2*
X1332163Y1616209D1*
X1378003Y1653098D1*
Y2395827D1*
X1327058Y2446772D1*
X1054155D1*
X996888Y2396123D1*
X656202Y756201D2*
X693701D1*
X724951Y787451D1*
Y1006570D1*
X624583D1*
X602240Y1028912D1*
Y1089740D1*
X620050Y1107550D1*
X679028D1*
X868701Y1297223D1*
Y1499450D1*
X763434Y1604717D1*
X626436D1*
X613936Y1617217D1*
Y1688936D1*
X629869Y1704869D1*
X736119D1*
X937451Y1906201D1*
Y1981201D1*
D15*
X1137451D3*
D16*
X1037451D3*
X937451D3*
X837451D3*
D17*
X656202Y556202D3*
Y656202D3*
Y756201D3*
Y856202D3*
Y956202D3*
Y1056201D3*
Y1156202D3*
Y1256202D3*
Y1356201D3*
Y1456202D3*
Y1556202D3*
Y1656201D3*
X1256202Y556202D3*
Y656202D3*
Y756201D3*
Y856202D3*
Y956202D3*
Y1056201D3*
Y1156202D3*
Y1256202D3*
Y1356201D3*
Y1456202D3*
Y1556202D3*
Y1656201D3*
X656202Y1756202D3*
Y1856202D3*
X1256202Y1756202D3*
Y1856202D3*
D18*
X881113Y3041555D3*
X1294507Y3041570D3*
Y2785664D3*
X881113Y2785650D3*
X1294499Y2923445D3*
X881121Y2923459D3*
D19*
X656322Y2957110D3*
D20*
Y2657110D3*
D19*
X549953Y2956201D3*
D20*
Y2656201D3*
D19*
X449951Y2956201D3*
D20*
Y2656201D3*
D21*
X499952Y3118699D3*
X599952D3*
D22*
X649952D3*
D21*
X549952D3*
D15*
X1037451Y912450D3*
D16*
X860286D3*
Y656545D3*
X1037451D3*
D24*
X996888Y2496123D3*
D25*
Y2396123D3*
Y2296123D3*
Y2196123D3*
X1296888D3*
Y2296123D3*
Y2396123D3*
Y2496123D3*
D24*
X609399D3*
D25*
Y2396123D3*
Y2296123D3*
Y2196123D3*
X909399D3*
Y2296123D3*
Y2396123D3*
Y2496123D3*
M02*
