G04 DipTrace 3.3.1.3*
G04 TopDimension.gbr*
%MOIN*%
G04 #@! TF.FileFunction,Drawing,Top*
G04 #@! TF.Part,Single*
%ADD13C,0.001378*%
%ADD55C,0.006176*%
%FSLAX26Y26*%
G04*
G70*
G90*
G75*
G01*
G04 TopDimension*
%LPD*%
X393701Y3374951D2*
D13*
X155266D1*
X393701Y393701D2*
X155266D1*
X174951Y1884326D2*
Y3335581D1*
G36*
Y3374951D2*
X182825Y3335581D1*
X167077D1*
X174951Y3374951D1*
G37*
Y1884326D2*
D13*
Y433071D1*
G36*
Y393701D2*
X167077Y433071D1*
X182825D1*
X174951Y393701D1*
G37*
X393701Y3424950D2*
D13*
Y3557135D1*
X1474953Y3424950D2*
Y3557135D1*
X934327Y3537450D2*
X433071D1*
G36*
X393701D2*
X433071Y3545324D1*
Y3529576D1*
X393701Y3537450D1*
G37*
X934327D2*
D13*
X1435583D1*
G36*
X1474953D2*
X1435583Y3529576D1*
Y3545324D1*
X1474953Y3537450D1*
G37*
X1187469Y2031201D2*
D13*
X1532136D1*
X1276881Y2153123D2*
X1532136D1*
X1512451D2*
Y2031201D1*
Y2212178D2*
Y2192493D1*
G36*
Y2153123D2*
X1504577Y2192493D1*
X1520325D1*
X1512451Y2153123D1*
G37*
Y1972146D2*
D13*
Y1991831D1*
G36*
Y2031201D2*
X1520325Y1991831D1*
X1504577D1*
X1512451Y2031201D1*
G37*
X806192Y381201D2*
D13*
Y305266D1*
X393701Y381201D2*
Y305266D1*
X599946Y324951D2*
X766822D1*
G36*
X806192D2*
X766822Y317077D1*
Y332825D1*
X806192Y324951D1*
G37*
X599946D2*
D13*
X433071D1*
G36*
X393701D2*
X433071Y332825D1*
Y317077D1*
X393701Y324951D1*
G37*
X493703Y3274950D2*
D13*
X242766D1*
X493711Y493720D2*
X242766D1*
X262451Y1884335D2*
Y3235580D1*
G36*
Y3274950D2*
X270325Y3235580D1*
X254577D1*
X262451Y3274950D1*
G37*
Y1884335D2*
D13*
Y533091D1*
G36*
Y493720D2*
X254577Y533091D1*
X270325D1*
X262451Y493720D1*
G37*
X1374951Y3274950D2*
D13*
X1632136D1*
X1474951Y3374951D2*
X1632136D1*
X1612451Y3324951D2*
Y3314320D1*
G36*
Y3274950D2*
X1604577Y3314320D1*
X1620325D1*
X1612451Y3274950D1*
G37*
Y3324951D2*
D13*
Y3335581D1*
G36*
Y3374951D2*
X1620325Y3335581D1*
X1604577D1*
X1612451Y3374951D1*
G37*
Y3112394D2*
D13*
Y3374951D1*
X1374951Y3324950D2*
X1544636D1*
X1374951Y3224950D2*
X1544636D1*
X1524951Y3274950D2*
Y3285580D1*
G36*
Y3324950D2*
X1532825Y3285580D1*
X1517077D1*
X1524951Y3324950D1*
G37*
Y3274950D2*
D13*
Y3264320D1*
G36*
Y3224950D2*
X1517077Y3264320D1*
X1532825D1*
X1524951Y3224950D1*
G37*
Y3062394D2*
D13*
Y3324950D1*
X806202Y368701D2*
Y299016D1*
X1112451Y318701D2*
Y338386D1*
X959327Y318701D2*
X845572D1*
G36*
X806202D2*
X845572Y326575D1*
Y310827D1*
X806202Y318701D1*
G37*
X959327D2*
D13*
X1073081D1*
G36*
X1112451D2*
X1073081Y310827D1*
Y326575D1*
X1112451Y318701D1*
G37*
Y331201D2*
D13*
Y299016D1*
X1474951Y318701D2*
Y338386D1*
X1293701Y318701D2*
X1151822D1*
G36*
X1112451D2*
X1151822Y326575D1*
Y310827D1*
X1112451Y318701D1*
G37*
X1293701D2*
D13*
X1435581D1*
G36*
X1474951D2*
X1435581Y310827D1*
Y326575D1*
X1474951Y318701D1*
G37*
X493703Y3274950D2*
D13*
Y3444635D1*
X393701Y3374951D2*
Y3444635D1*
X443702Y3424950D2*
X454333D1*
G36*
X493703D2*
X454333Y3417076D1*
Y3432824D1*
X493703Y3424950D1*
G37*
X443702D2*
D13*
X433071D1*
G36*
X393701D2*
X433071Y3432824D1*
Y3417076D1*
X393701Y3424950D1*
G37*
X656260D2*
D13*
X493703D1*
X493711Y493720D2*
Y186516D1*
X1374951Y493701D2*
Y186516D1*
X934331Y206201D2*
X533081D1*
G36*
X493711D2*
X533081Y214075D1*
Y198327D1*
X493711Y206201D1*
G37*
X934331D2*
D13*
X1335581D1*
G36*
X1374951D2*
X1335581Y198327D1*
Y214075D1*
X1374951Y206201D1*
G37*
X393701Y299951D2*
D13*
Y242765D1*
X493701Y256201D2*
Y282135D1*
X443701Y262450D2*
X433071D1*
G36*
X393701D2*
X433071Y270324D1*
Y254576D1*
X393701Y262450D1*
G37*
X443701D2*
D13*
X454331D1*
G36*
X493701D2*
X454331Y254576D1*
Y270324D1*
X493701Y262450D1*
G37*
X656257D2*
D13*
X493701D1*
X493711Y493720D2*
X324016D1*
X393701Y393701D2*
X324016D1*
X343701Y443711D2*
Y454350D1*
G36*
Y493720D2*
X351575Y454350D1*
X335827D1*
X343701Y493720D1*
G37*
Y443711D2*
D13*
Y433071D1*
G36*
Y393701D2*
X335827Y433071D1*
X351575D1*
X343701Y393701D1*
G37*
Y656277D2*
D13*
Y493720D1*
X948869Y784497D2*
X1638386D1*
X1631202Y393701D2*
X1599016D1*
X1618701Y589099D2*
Y745127D1*
G36*
Y784497D2*
X1626575Y745127D1*
X1610827D1*
X1618701Y784497D1*
G37*
Y589099D2*
D13*
Y433071D1*
G36*
Y393701D2*
X1610827Y433071D1*
X1626575D1*
X1618701Y393701D1*
G37*
X787434Y1931196D2*
D13*
Y74016D1*
X1187469Y1931196D2*
Y74016D1*
X987451Y93701D2*
X826804D1*
G36*
X787434D2*
X826804Y101575D1*
Y85827D1*
X787434Y93701D1*
G37*
X987451D2*
D13*
X1148099D1*
G36*
X1187469D2*
X1148099Y85827D1*
Y101575D1*
X1187469Y93701D1*
G37*
X1424951Y493701D2*
D13*
X1550887D1*
X1474951Y393701D2*
X1550887D1*
X1531202Y443701D2*
Y454331D1*
G36*
Y493701D2*
X1539076Y454331D1*
X1523328D1*
X1531202Y493701D1*
G37*
Y443701D2*
D13*
Y433071D1*
G36*
Y393701D2*
X1523328Y433071D1*
X1539076D1*
X1531202Y393701D1*
G37*
Y231144D2*
D13*
Y493701D1*
X1374951Y3274950D2*
Y3444635D1*
X1474951Y3374951D2*
Y3444635D1*
X1424951Y3424950D2*
X1414322D1*
G36*
X1374951D2*
X1414322Y3432824D1*
Y3417076D1*
X1374951Y3424950D1*
G37*
X1424951D2*
D13*
X1435581D1*
G36*
X1474951D2*
X1435581Y3417076D1*
Y3432824D1*
X1474951Y3424950D1*
G37*
X1637508D2*
D13*
X1474951D1*
X493703Y3274950D2*
X317766D1*
X393701Y3374951D2*
X317766D1*
X337451Y3324951D2*
Y3314320D1*
G36*
Y3274950D2*
X329577Y3314320D1*
X345325D1*
X337451Y3274950D1*
G37*
Y3324951D2*
D13*
Y3335581D1*
G36*
Y3374951D2*
X345325Y3335581D1*
X329577D1*
X337451Y3374951D1*
G37*
Y3537508D2*
D13*
Y3374951D1*
X948869Y855360D2*
X1544636D1*
X948857Y725451D2*
X1544636D1*
X1524951Y855360D2*
Y725451D1*
Y914415D2*
Y894730D1*
G36*
Y855360D2*
X1517077Y894730D1*
X1532825D1*
X1524951Y855360D1*
G37*
Y666396D2*
D13*
Y686081D1*
G36*
Y725451D2*
X1532825Y686081D1*
X1517077D1*
X1524951Y725451D1*
G37*
X1187469Y2031201D2*
D13*
X1719636D1*
X1306202Y456197D2*
X1719636D1*
X1699951Y1243699D2*
Y1991831D1*
G36*
Y2031201D2*
X1707825Y1991831D1*
X1692077D1*
X1699951Y2031201D1*
G37*
Y1243699D2*
D13*
Y495567D1*
G36*
Y456197D2*
X1692077Y495567D1*
X1707825D1*
X1699951Y456197D1*
G37*
X881113Y3023850D2*
D13*
Y3066185D1*
X1294507Y3009089D2*
Y3066185D1*
X1087810Y3046500D2*
X920483D1*
G36*
X881113D2*
X920483Y3054374D1*
Y3038626D1*
X881113Y3046500D1*
G37*
X1087810D2*
D13*
X1255136D1*
G36*
X1294507D2*
X1255136Y3038626D1*
Y3054374D1*
X1294507Y3046500D1*
G37*
Y3041570D2*
D13*
X1100314D1*
X1294507Y2923459D2*
X1100314D1*
X1119999Y3041570D2*
Y2923459D1*
Y3100625D2*
Y3080940D1*
G36*
Y3041570D2*
X1112125Y3080940D1*
X1127873D1*
X1119999Y3041570D1*
G37*
Y2864404D2*
D13*
Y2884089D1*
G36*
Y2923459D2*
X1127873Y2884089D1*
X1112125D1*
X1119999Y2923459D1*
G37*
X1294507D2*
D13*
X1186146D1*
X1294507Y2785664D2*
X1186146D1*
X1205831Y2923459D2*
Y2785664D1*
Y2982514D2*
Y2962829D1*
G36*
Y2923459D2*
X1197957Y2962829D1*
X1213705D1*
X1205831Y2923459D1*
G37*
Y2726609D2*
D13*
Y2746294D1*
G36*
Y2785664D2*
X1213705Y2746294D1*
X1197957D1*
X1205831Y2785664D1*
G37*
X1294507D2*
D13*
Y2819419D1*
X881121Y2785664D2*
Y2819419D1*
X1087814Y2799734D2*
X1255136D1*
G36*
X1294507D2*
X1255136Y2791860D1*
Y2807608D1*
X1294507Y2799734D1*
G37*
X1087814D2*
D13*
X920491D1*
G36*
X881121D2*
X920491Y2807608D1*
Y2791860D1*
X881121Y2799734D1*
G37*
Y2785664D2*
D13*
X983041D1*
X881121Y2923459D2*
X983041D1*
X963356D2*
Y2785664D1*
Y2982514D2*
Y2962829D1*
G36*
Y2923459D2*
X955482Y2962829D1*
X971230D1*
X963356Y2923459D1*
G37*
Y2726609D2*
D13*
Y2746294D1*
G36*
Y2785664D2*
X971230Y2746294D1*
X955482D1*
X963356Y2785664D1*
G37*
X162741Y1814848D2*
D55*
X122593Y1833993D1*
Y1807198D1*
Y1869292D2*
Y1850191D1*
X139793Y1848290D1*
X137892Y1850191D1*
X135946Y1855939D1*
Y1861643D1*
X137892Y1867391D1*
X141694Y1871238D1*
X147442Y1873139D1*
X151245D1*
X156993Y1871238D1*
X160839Y1867391D1*
X162741Y1861643D1*
Y1855939D1*
X160839Y1850191D1*
X158894Y1848290D1*
X155091Y1846345D1*
X158894Y1887392D2*
X160839Y1885491D1*
X162741Y1887392D1*
X160839Y1889337D1*
X158894Y1887392D1*
X162741Y1909338D2*
X122593Y1928483D1*
Y1901689D1*
X132143Y1942780D2*
X130242D1*
X126395Y1944682D1*
X124494Y1946583D1*
X122593Y1950430D1*
Y1958079D1*
X124494Y1961881D1*
X126395Y1963783D1*
X130242Y1965728D1*
X134045D1*
X137892Y1963783D1*
X143595Y1959980D1*
X162741Y1940835D1*
Y1967629D1*
X859167Y3580258D2*
Y3582159D1*
X861068Y3586006D1*
X862969Y3587907D1*
X866816Y3589809D1*
X874465D1*
X878268Y3587907D1*
X880169Y3586006D1*
X882115Y3582159D1*
Y3578357D1*
X880169Y3574510D1*
X876367Y3568806D1*
X857221Y3549661D1*
X884016D1*
X904017D2*
X923162Y3589809D1*
X896367D1*
X937415Y3553508D2*
X935513Y3551562D1*
X937415Y3549661D1*
X939360Y3551562D1*
X937415Y3553508D1*
X970857Y3549661D2*
Y3589809D1*
X951712Y3563058D1*
X980407D1*
X1015707Y3584105D2*
X1013805Y3587907D1*
X1008057Y3589809D1*
X1004255D1*
X998507Y3587907D1*
X994660Y3582159D1*
X992759Y3572609D1*
Y3563058D1*
X994660Y3555409D1*
X998507Y3551562D1*
X1004255Y3549661D1*
X1006156D1*
X1011860Y3551562D1*
X1015707Y3555409D1*
X1017608Y3561157D1*
Y3563058D1*
X1015707Y3568806D1*
X1011860Y3572609D1*
X1006156Y3574510D1*
X1004255D1*
X998507Y3572609D1*
X994660Y3568806D1*
X992759Y3563058D1*
X1564810Y2117697D2*
Y2096695D1*
X1549511Y2108146D1*
Y2102398D1*
X1547610Y2098596D1*
X1545709Y2096695D1*
X1539961Y2094749D1*
X1536158D1*
X1530410Y2096695D1*
X1526563Y2100497D1*
X1524662Y2106245D1*
Y2111993D1*
X1526563Y2117697D1*
X1528509Y2119598D1*
X1532312Y2121544D1*
X1528509Y2080496D2*
X1526563Y2082398D1*
X1524662Y2080496D1*
X1526563Y2078551D1*
X1528509Y2080496D1*
X1557161Y2066200D2*
X1559106Y2062353D1*
X1564810Y2056605D1*
X1524662D1*
X530490Y369661D2*
X534337Y371606D1*
X540085Y377310D1*
Y337162D1*
X563932Y377310D2*
X558184Y375409D1*
X554337Y369661D1*
X552436Y360110D1*
Y354362D1*
X554337Y344812D1*
X558184Y339063D1*
X563932Y337162D1*
X567735D1*
X573483Y339063D1*
X577285Y344812D1*
X579231Y354362D1*
Y360110D1*
X577285Y369661D1*
X573483Y375409D1*
X567735Y377310D1*
X563932D1*
X577285Y369661D2*
X554337Y344812D1*
X593483Y341009D2*
X591582Y339063D1*
X593483Y337162D1*
X595429Y339063D1*
X593483Y341009D1*
X626926Y337162D2*
Y377310D1*
X607780Y350560D1*
X636476D1*
X658378Y377310D2*
X652674Y375409D1*
X650729Y371606D1*
Y367759D1*
X652674Y363957D1*
X656477Y362011D1*
X664126Y360110D1*
X669874Y358209D1*
X673677Y354362D1*
X675578Y350560D1*
Y344812D1*
X673677Y341009D1*
X671776Y339063D1*
X666028Y337162D1*
X658378D1*
X652674Y339063D1*
X650729Y341009D1*
X648828Y344812D1*
Y350560D1*
X650729Y354362D1*
X654576Y358209D1*
X660280Y360110D1*
X667929Y362011D1*
X671776Y363957D1*
X673677Y367759D1*
Y371606D1*
X671776Y375409D1*
X666028Y377310D1*
X658378D1*
X250241Y1814879D2*
X210093Y1834024D1*
Y1807230D1*
Y1857872D2*
X211994Y1852124D1*
X217742Y1848277D1*
X227293Y1846376D1*
X233041D1*
X242591Y1848277D1*
X248339Y1852124D1*
X250241Y1857872D1*
Y1861674D1*
X248339Y1867422D1*
X242591Y1871225D1*
X233041Y1873170D1*
X227293D1*
X217742Y1871225D1*
X211994Y1867422D1*
X210093Y1861674D1*
Y1857872D1*
X217742Y1871225D2*
X242591Y1848277D1*
X246394Y1887423D2*
X248339Y1885522D1*
X250241Y1887423D1*
X248339Y1889369D1*
X246394Y1887423D1*
X215797Y1924668D2*
X211994Y1922767D1*
X210093Y1917019D1*
Y1913216D1*
X211994Y1907468D1*
X217742Y1903621D1*
X227293Y1901720D1*
X236843D1*
X244493Y1903621D1*
X248339Y1907468D1*
X250241Y1913216D1*
Y1915117D1*
X248339Y1920821D1*
X244493Y1924668D1*
X238745Y1926569D1*
X236843D1*
X231095Y1924668D1*
X227293Y1920821D1*
X225392Y1915117D1*
Y1913216D1*
X227293Y1907468D1*
X231095Y1903621D1*
X236843Y1901720D1*
X250241Y1958066D2*
X210093D1*
X236843Y1938921D1*
Y1967617D1*
X1655259Y3224371D2*
X1657161D1*
X1661007Y3222470D1*
X1662909Y3220568D1*
X1664810Y3216722D1*
Y3209072D1*
X1662909Y3205270D1*
X1661007Y3203369D1*
X1657161Y3201423D1*
X1653358D1*
X1649511Y3203369D1*
X1643808Y3207171D1*
X1624662Y3226317D1*
Y3199522D1*
X1628509Y3185269D2*
X1626563Y3187170D1*
X1624662Y3185269D1*
X1626563Y3183324D1*
X1628509Y3185269D1*
X1664810Y3148024D2*
Y3167126D1*
X1647610Y3169027D1*
X1649511Y3167126D1*
X1651457Y3161377D1*
Y3155674D1*
X1649511Y3149926D1*
X1645709Y3146079D1*
X1639961Y3144178D1*
X1636158D1*
X1630410Y3146079D1*
X1626563Y3149926D1*
X1624662Y3155674D1*
Y3161377D1*
X1626563Y3167126D1*
X1628509Y3169027D1*
X1632312Y3170972D1*
X1624662Y3112681D2*
X1664810D1*
X1638060Y3131826D1*
Y3103130D1*
X1567759Y3174371D2*
X1569661D1*
X1573507Y3172470D1*
X1575409Y3170568D1*
X1577310Y3166722D1*
Y3159072D1*
X1575409Y3155270D1*
X1573507Y3153369D1*
X1569661Y3151423D1*
X1565858D1*
X1562011Y3153369D1*
X1556308Y3157171D1*
X1537162Y3176317D1*
Y3149522D1*
X1541009Y3135269D2*
X1539063Y3137170D1*
X1537162Y3135269D1*
X1539063Y3133324D1*
X1541009Y3135269D1*
X1577310Y3098024D2*
Y3117126D1*
X1560110Y3119027D1*
X1562011Y3117126D1*
X1563957Y3111377D1*
Y3105674D1*
X1562011Y3099926D1*
X1558209Y3096079D1*
X1552461Y3094178D1*
X1548658D1*
X1542910Y3096079D1*
X1539063Y3099926D1*
X1537162Y3105674D1*
Y3111377D1*
X1539063Y3117126D1*
X1541009Y3119027D1*
X1544812Y3120972D1*
X1537162Y3062681D2*
X1577310D1*
X1550560Y3081826D1*
Y3053130D1*
X909444Y330912D2*
X928589Y371059D1*
X901794D1*
X942842Y334758D2*
X940940Y332813D1*
X942842Y330912D1*
X944787Y332813D1*
X942842Y334758D1*
X964788Y330912D2*
X983933Y371059D1*
X957138D1*
X1005835D2*
X1000131Y369158D1*
X998186Y365356D1*
Y361509D1*
X1000131Y357706D1*
X1003934Y355761D1*
X1011583Y353859D1*
X1017331Y351958D1*
X1021134Y348111D1*
X1023035Y344309D1*
Y338561D1*
X1021134Y334758D1*
X1019232Y332813D1*
X1013484Y330912D1*
X1005835D1*
X1000131Y332813D1*
X998186Y334758D1*
X996285Y338561D1*
Y344309D1*
X998186Y348111D1*
X1002033Y351958D1*
X1007736Y353859D1*
X1015386Y355761D1*
X1019232Y357706D1*
X1021134Y361509D1*
Y365356D1*
X1019232Y369158D1*
X1013484Y371059D1*
X1005835D1*
X1270591Y357706D2*
X1268645Y351958D1*
X1264843Y348111D1*
X1259095Y346210D1*
X1257193D1*
X1251445Y348111D1*
X1247643Y351958D1*
X1245697Y357706D1*
Y359607D1*
X1247643Y365356D1*
X1251445Y369158D1*
X1257193Y371059D1*
X1259095D1*
X1264843Y369158D1*
X1268645Y365356D1*
X1270591Y357706D1*
Y348111D1*
X1268645Y338561D1*
X1264843Y332813D1*
X1259095Y330912D1*
X1255292D1*
X1249544Y332813D1*
X1247643Y336660D1*
X1284843Y334758D2*
X1282942Y332813D1*
X1284843Y330912D1*
X1286789Y332813D1*
X1284843Y334758D1*
X1301086Y361509D2*
Y363410D1*
X1302987Y367257D1*
X1304888Y369158D1*
X1308735Y371059D1*
X1316384D1*
X1320187Y369158D1*
X1322088Y367257D1*
X1324034Y363410D1*
Y359607D1*
X1322088Y355761D1*
X1318286Y350057D1*
X1299140Y330912D1*
X1325935D1*
X1338286Y363410D2*
X1342133Y365356D1*
X1347881Y371059D1*
Y330912D1*
X544283Y3467758D2*
Y3469659D1*
X546184Y3473506D1*
X548085Y3475407D1*
X551932Y3477309D1*
X559581D1*
X563384Y3475407D1*
X565285Y3473506D1*
X567230Y3469659D1*
Y3465857D1*
X565285Y3462010D1*
X561482Y3456306D1*
X542337Y3437161D1*
X569132D1*
X583384Y3441008D2*
X581483Y3439062D1*
X583384Y3437161D1*
X585330Y3439062D1*
X583384Y3441008D1*
X620629Y3477309D2*
X601528D1*
X599627Y3460109D1*
X601528Y3462010D1*
X607276Y3463956D1*
X612980D1*
X618728Y3462010D1*
X622575Y3458208D1*
X624476Y3452459D1*
Y3448657D1*
X622575Y3442909D1*
X618728Y3439062D1*
X612980Y3437161D1*
X607276D1*
X601528Y3439062D1*
X599627Y3441008D1*
X597681Y3444810D1*
X655973Y3437161D2*
Y3477309D1*
X636827Y3450558D1*
X665523D1*
X859171Y249009D2*
Y250910D1*
X861073Y254757D1*
X862974Y256658D1*
X866821Y258559D1*
X874470D1*
X878272Y256658D1*
X880174Y254757D1*
X882119Y250910D1*
Y247107D1*
X880174Y243261D1*
X876371Y237557D1*
X857226Y218412D1*
X884020D1*
X898317Y249009D2*
Y250910D1*
X900219Y254757D1*
X902120Y256658D1*
X905967Y258559D1*
X913616D1*
X917419Y256658D1*
X919320Y254757D1*
X921265Y250910D1*
Y247107D1*
X919320Y243261D1*
X915517Y237557D1*
X896372Y218412D1*
X923167D1*
X937419Y222258D2*
X935518Y220313D1*
X937419Y218412D1*
X939365Y220313D1*
X937419Y222258D1*
X955563Y258559D2*
X976565D1*
X965113Y243261D1*
X970861D1*
X974664Y241359D1*
X976565Y239458D1*
X978511Y233710D1*
Y229908D1*
X976565Y224160D1*
X972763Y220313D1*
X967015Y218412D1*
X961267D1*
X955563Y220313D1*
X953662Y222258D1*
X951716Y226061D1*
X1000413Y258559D2*
X994709Y256658D1*
X992763Y252856D1*
Y249009D1*
X994709Y245206D1*
X998511Y243261D1*
X1006161Y241359D1*
X1011909Y239458D1*
X1015711Y235611D1*
X1017613Y231809D1*
Y226061D1*
X1015711Y222258D1*
X1013810Y220313D1*
X1008062Y218412D1*
X1000413D1*
X994709Y220313D1*
X992763Y222258D1*
X990862Y226061D1*
Y231809D1*
X992763Y235611D1*
X996610Y239458D1*
X1002314Y241359D1*
X1009963Y243261D1*
X1013810Y245206D1*
X1015711Y249009D1*
Y252856D1*
X1013810Y256658D1*
X1008062Y258559D1*
X1000413D1*
X544280Y305258D2*
Y307159D1*
X546181Y311006D1*
X548082Y312907D1*
X551929Y314809D1*
X559579D1*
X563381Y312907D1*
X565282Y311006D1*
X567228Y307159D1*
Y303357D1*
X565282Y299510D1*
X561480Y293806D1*
X542334Y274661D1*
X569129D1*
X583382Y278508D2*
X581480Y276562D1*
X583382Y274661D1*
X585327Y276562D1*
X583382Y278508D1*
X620627Y314809D2*
X601525D1*
X599624Y297609D1*
X601525Y299510D1*
X607273Y301456D1*
X612977D1*
X618725Y299510D1*
X622572Y295708D1*
X624473Y289959D1*
Y286157D1*
X622572Y280409D1*
X618725Y276562D1*
X612977Y274661D1*
X607273D1*
X601525Y276562D1*
X599624Y278508D1*
X597679Y282310D1*
X655970Y274661D2*
Y314809D1*
X636825Y288058D1*
X665521D1*
X300893Y544300D2*
X298992D1*
X295145Y546201D1*
X293244Y548102D1*
X291342Y551949D1*
Y559598D1*
X293244Y563401D1*
X295145Y565302D1*
X298992Y567247D1*
X302794D1*
X306641Y565302D1*
X312345Y561499D1*
X331490Y542354D1*
Y569149D1*
X327643Y583401D2*
X329589Y581500D1*
X331490Y583401D1*
X329589Y585347D1*
X327643Y583401D1*
X291342Y620646D2*
Y601545D1*
X308542Y599644D1*
X306641Y601545D1*
X304695Y607293D1*
Y612997D1*
X306641Y618745D1*
X310443Y622592D1*
X316191Y624493D1*
X319994D1*
X325742Y622592D1*
X329589Y618745D1*
X331490Y612997D1*
Y607293D1*
X329589Y601545D1*
X327643Y599644D1*
X323841Y597698D1*
X331490Y655990D2*
X291342D1*
X318093Y636844D1*
Y665540D1*
X1657706Y619859D2*
X1651958Y621805D1*
X1648111Y625607D1*
X1646210Y631355D1*
Y633256D1*
X1648111Y639004D1*
X1651958Y642807D1*
X1657706Y644752D1*
X1659607D1*
X1665356Y642807D1*
X1669158Y639004D1*
X1671059Y633256D1*
Y631355D1*
X1669158Y625607D1*
X1665356Y621805D1*
X1657706Y619859D1*
X1648111D1*
X1638561Y621805D1*
X1632813Y625607D1*
X1630912Y631355D1*
Y635158D1*
X1632813Y640906D1*
X1636660Y642807D1*
X1634758Y605606D2*
X1632813Y607508D1*
X1630912Y605606D1*
X1632813Y603661D1*
X1634758Y605606D1*
X1657706Y566416D2*
X1651958Y568362D1*
X1648111Y572164D1*
X1646210Y577912D1*
Y579813D1*
X1648111Y585561D1*
X1651958Y589364D1*
X1657706Y591309D1*
X1659607D1*
X1665356Y589364D1*
X1669158Y585561D1*
X1671059Y579813D1*
Y577912D1*
X1669158Y572164D1*
X1665356Y568362D1*
X1657706Y566416D1*
X1648111D1*
X1638561Y568362D1*
X1632813Y572164D1*
X1630912Y577912D1*
Y581715D1*
X1632813Y587463D1*
X1636660Y589364D1*
X1671059Y550218D2*
Y529216D1*
X1655761Y540667D1*
Y534919D1*
X1653859Y531117D1*
X1651958Y529216D1*
X1646210Y527270D1*
X1642408D1*
X1636660Y529216D1*
X1632813Y533018D1*
X1630912Y538766D1*
Y544514D1*
X1632813Y550218D1*
X1634758Y552119D1*
X1638561Y554065D1*
X928496Y138410D2*
X932343Y140356D1*
X938091Y146059D1*
Y105912D1*
X961939Y146059D2*
X956191Y144158D1*
X952344Y138410D1*
X950443Y128859D1*
Y123111D1*
X952344Y113561D1*
X956191Y107813D1*
X961939Y105912D1*
X965741D1*
X971489Y107813D1*
X975292Y113561D1*
X977237Y123111D1*
Y128859D1*
X975292Y138410D1*
X971489Y144158D1*
X965741Y146059D1*
X961939D1*
X975292Y138410D2*
X952344Y113561D1*
X991490Y109758D2*
X989589Y107813D1*
X991490Y105912D1*
X993435Y107813D1*
X991490Y109758D1*
X1005787Y138410D2*
X1009634Y140356D1*
X1015382Y146059D1*
Y105912D1*
X1050681Y140356D2*
X1048780Y144158D1*
X1043032Y146059D1*
X1039229D1*
X1033481Y144158D1*
X1029634Y138410D1*
X1027733Y128859D1*
Y119309D1*
X1029634Y111660D1*
X1033481Y107813D1*
X1039229Y105912D1*
X1041130D1*
X1046834Y107813D1*
X1050681Y111660D1*
X1052582Y117408D1*
Y119309D1*
X1050681Y125057D1*
X1046834Y128859D1*
X1041130Y130761D1*
X1039229D1*
X1033481Y128859D1*
X1029634Y125057D1*
X1027733Y119309D1*
X1574010Y343122D2*
X1575911D1*
X1579758Y341220D1*
X1581659Y339319D1*
X1583561Y335472D1*
Y327823D1*
X1581659Y324021D1*
X1579758Y322119D1*
X1575911Y320174D1*
X1572109D1*
X1568262Y322119D1*
X1562558Y325922D1*
X1543413Y345067D1*
Y318272D1*
X1547260Y304020D2*
X1545314Y305921D1*
X1543413Y304020D1*
X1545314Y302074D1*
X1547260Y304020D1*
X1583561Y266775D2*
Y285876D1*
X1566361Y287777D1*
X1568262Y285876D1*
X1570208Y280128D1*
Y274424D1*
X1568262Y268676D1*
X1564459Y264830D1*
X1558711Y262928D1*
X1554909D1*
X1549161Y264830D1*
X1545314Y268676D1*
X1543413Y274424D1*
Y280128D1*
X1545314Y285876D1*
X1547260Y287777D1*
X1551062Y289723D1*
X1543413Y231432D2*
X1583561D1*
X1556810Y250577D1*
Y221881D1*
X1525531Y3467758D2*
Y3469659D1*
X1527432Y3473506D1*
X1529333Y3475407D1*
X1533180Y3477309D1*
X1540829D1*
X1544632Y3475407D1*
X1546533Y3473506D1*
X1548478Y3469659D1*
Y3465857D1*
X1546533Y3462010D1*
X1542730Y3456306D1*
X1523585Y3437161D1*
X1550380D1*
X1564632Y3441008D2*
X1562731Y3439062D1*
X1564632Y3437161D1*
X1566578Y3439062D1*
X1564632Y3441008D1*
X1601877Y3477309D2*
X1582776D1*
X1580875Y3460109D1*
X1582776Y3462010D1*
X1588524Y3463956D1*
X1594228D1*
X1599976Y3462010D1*
X1603823Y3458208D1*
X1605724Y3452459D1*
Y3448657D1*
X1603823Y3442909D1*
X1599976Y3439062D1*
X1594228Y3437161D1*
X1588524D1*
X1582776Y3439062D1*
X1580875Y3441008D1*
X1578929Y3444810D1*
X1637221Y3437161D2*
Y3477309D1*
X1618075Y3450558D1*
X1646771D1*
X294643Y3425531D2*
X292742D1*
X288895Y3427432D1*
X286994Y3429333D1*
X285093Y3433180D1*
Y3440829D1*
X286994Y3444632D1*
X288895Y3446533D1*
X292742Y3448478D1*
X296545D1*
X300392Y3446533D1*
X306095Y3442730D1*
X325241Y3423585D1*
Y3450380D1*
X321394Y3464632D2*
X323339Y3462731D1*
X325241Y3464632D1*
X323339Y3466578D1*
X321394Y3464632D1*
X285093Y3501877D2*
Y3482776D1*
X302293Y3480875D1*
X300392Y3482776D1*
X298446Y3488524D1*
Y3494228D1*
X300392Y3499976D1*
X304194Y3503823D1*
X309942Y3505724D1*
X313745D1*
X319493Y3503823D1*
X323339Y3499976D1*
X325241Y3494228D1*
Y3488524D1*
X323339Y3482776D1*
X321394Y3480875D1*
X317591Y3478929D1*
X325241Y3537221D2*
X285093D1*
X311843Y3518075D1*
Y3546771D1*
X1577310Y824540D2*
Y803538D1*
X1562011Y814990D1*
Y809241D1*
X1560110Y805439D1*
X1558209Y803538D1*
X1552461Y801592D1*
X1548658D1*
X1542910Y803538D1*
X1539063Y807340D1*
X1537162Y813088D1*
Y818836D1*
X1539063Y824540D1*
X1541009Y826441D1*
X1544812Y828387D1*
X1541009Y787340D2*
X1539063Y789241D1*
X1537162Y787340D1*
X1539063Y785394D1*
X1541009Y787340D1*
X1577310Y769196D2*
Y748193D1*
X1562011Y759645D1*
Y753897D1*
X1560110Y750095D1*
X1558209Y748193D1*
X1552461Y746248D1*
X1548658D1*
X1542910Y748193D1*
X1539063Y751996D1*
X1537162Y757744D1*
Y763492D1*
X1539063Y769196D1*
X1541009Y771097D1*
X1544812Y773043D1*
X1712162Y1294032D2*
X1752310D1*
X1725560Y1313177D1*
Y1284481D1*
X1752310Y1260634D2*
X1750409Y1266382D1*
X1744661Y1270229D1*
X1735110Y1272130D1*
X1729362D1*
X1719812Y1270229D1*
X1714063Y1266382D1*
X1712162Y1260634D1*
Y1256831D1*
X1714063Y1251083D1*
X1719812Y1247281D1*
X1729362Y1245335D1*
X1735110D1*
X1744661Y1247281D1*
X1750409Y1251083D1*
X1752310Y1256831D1*
Y1260634D1*
X1744661Y1247281D2*
X1719812Y1270229D1*
X1716009Y1231083D2*
X1714063Y1232984D1*
X1712162Y1231083D1*
X1714063Y1229137D1*
X1716009Y1231083D1*
X1752310Y1205290D2*
X1750409Y1211038D1*
X1744661Y1214884D1*
X1735110Y1216786D1*
X1729362D1*
X1719812Y1214884D1*
X1714063Y1211038D1*
X1712162Y1205290D1*
Y1201487D1*
X1714063Y1195739D1*
X1719812Y1191936D1*
X1729362Y1189991D1*
X1735110D1*
X1744661Y1191936D1*
X1750409Y1195739D1*
X1752310Y1201487D1*
Y1205290D1*
X1744661Y1191936D2*
X1719812Y1214884D1*
X1744661Y1177640D2*
X1746606Y1173793D1*
X1752310Y1168045D1*
X1712162D1*
X1038855Y3091209D2*
X1042702Y3093155D1*
X1048450Y3098859D1*
Y3058711D1*
X1072297Y3098859D2*
X1066549Y3096957D1*
X1062702Y3091209D1*
X1060801Y3081659D1*
Y3075911D1*
X1062702Y3066360D1*
X1066549Y3060612D1*
X1072297Y3058711D1*
X1076100D1*
X1081848Y3060612D1*
X1085650Y3066360D1*
X1087596Y3075911D1*
Y3081659D1*
X1085650Y3091209D1*
X1081848Y3096957D1*
X1076100Y3098859D1*
X1072297D1*
X1085650Y3091209D2*
X1062702Y3066360D1*
X1101849Y3062558D2*
X1099947Y3060612D1*
X1101849Y3058711D1*
X1103794Y3060612D1*
X1101849Y3062558D1*
X1139093Y3098859D2*
X1119992D1*
X1118091Y3081659D1*
X1119992Y3083560D1*
X1125740Y3085505D1*
X1131444D1*
X1137192Y3083560D1*
X1141039Y3079757D1*
X1142940Y3074009D1*
Y3070207D1*
X1141039Y3064459D1*
X1137192Y3060612D1*
X1131444Y3058711D1*
X1125740D1*
X1119992Y3060612D1*
X1118091Y3062558D1*
X1116145Y3066360D1*
X1067640Y2976052D2*
Y2997054D1*
X1082939Y2985602D1*
Y2991350D1*
X1084840Y2995153D1*
X1086741Y2997054D1*
X1092489Y2999000D1*
X1096292D1*
X1102040Y2997054D1*
X1105887Y2993252D1*
X1107788Y2987504D1*
Y2981756D1*
X1105887Y2976052D1*
X1103941Y2974150D1*
X1100139Y2972205D1*
X1153472Y2820427D2*
Y2841429D1*
X1168771Y2829977D1*
Y2835725D1*
X1170672Y2839528D1*
X1172573Y2841429D1*
X1178321Y2843375D1*
X1182124D1*
X1187872Y2841429D1*
X1191719Y2837627D1*
X1193620Y2831879D1*
Y2826131D1*
X1191719Y2820427D1*
X1189773Y2818526D1*
X1185971Y2816580D1*
X1189773Y2857627D2*
X1191719Y2855726D1*
X1193620Y2857627D1*
X1191719Y2859573D1*
X1189773Y2857627D1*
X1153472Y2894872D2*
Y2875771D1*
X1170672Y2873870D1*
X1168771Y2875771D1*
X1166825Y2881519D1*
Y2887223D1*
X1168771Y2892971D1*
X1172573Y2896818D1*
X1178321Y2898719D1*
X1182124D1*
X1187872Y2896818D1*
X1191719Y2892971D1*
X1193620Y2887223D1*
Y2881519D1*
X1191719Y2875771D1*
X1189773Y2873870D1*
X1185971Y2871924D1*
X1038859Y2844443D2*
X1042706Y2846388D1*
X1048454Y2852092D1*
Y2811944D1*
X1072301Y2852092D2*
X1066553Y2850191D1*
X1062706Y2844443D1*
X1060805Y2834892D1*
Y2829144D1*
X1062706Y2819594D1*
X1066553Y2813846D1*
X1072301Y2811944D1*
X1076104D1*
X1081852Y2813846D1*
X1085654Y2819594D1*
X1087600Y2829144D1*
Y2834892D1*
X1085654Y2844443D1*
X1081852Y2850191D1*
X1076104Y2852092D1*
X1072301D1*
X1085654Y2844443D2*
X1062706Y2819594D1*
X1101852Y2815791D2*
X1099951Y2813846D1*
X1101852Y2811944D1*
X1103798Y2813846D1*
X1101852Y2815791D1*
X1139097Y2852092D2*
X1119996D1*
X1118095Y2834892D1*
X1119996Y2836794D1*
X1125744Y2838739D1*
X1131448D1*
X1137196Y2836794D1*
X1141043Y2832991D1*
X1142944Y2827243D1*
Y2823440D1*
X1141043Y2817692D1*
X1137196Y2813846D1*
X1131448Y2811944D1*
X1125744D1*
X1119996Y2813846D1*
X1118095Y2815791D1*
X1116149Y2819594D1*
X1015714Y2888697D2*
Y2867694D1*
X1000416Y2879146D1*
Y2873398D1*
X998514Y2869595D1*
X996613Y2867694D1*
X990865Y2865749D1*
X987062D1*
X981314Y2867694D1*
X977468Y2871497D1*
X975566Y2877245D1*
Y2882993D1*
X977468Y2888697D1*
X979413Y2890598D1*
X983216Y2892543D1*
X979413Y2851496D2*
X977468Y2853397D1*
X975566Y2851496D1*
X977468Y2849550D1*
X979413Y2851496D1*
X1015714Y2814251D2*
Y2833352D1*
X998514Y2835254D1*
X1000416Y2833352D1*
X1002361Y2827604D1*
Y2821900D1*
X1000416Y2816152D1*
X996613Y2812306D1*
X990865Y2810404D1*
X987062D1*
X981314Y2812306D1*
X977468Y2816152D1*
X975566Y2821900D1*
Y2827604D1*
X977468Y2833352D1*
X979413Y2835254D1*
X983216Y2837199D1*
M02*
