M48
INCH
T01C0.022
T02C0.0295
T03C0.0354
T04C0.039
T05C0.0394
T06C0.0433
T07C0.0591
T08C0.1
%
T01
X+006500Y+029562
X+005500Y+029562
X+004500Y+029562
X+004500Y+026562
X+005500Y+026562
X+006500Y+026562
X+009562Y+015375
X+008125Y+013687
X+009562Y+012375
X+008125Y+010687
T02
X+005000Y+031187
X+005500Y+031187
X+006000Y+031187
X+006500Y+031187
T03
X+006562Y+005562
X+006562Y+006562
X+006562Y+007562
X+006562Y+008562
X+006562Y+009562
X+006562Y+010562
X+006562Y+011562
X+006562Y+012562
X+006562Y+013562
X+006562Y+014562
X+006562Y+015562
X+006562Y+016562
X+006562Y+017562
X+006562Y+018562
X+012562Y+018562
X+012562Y+017562
X+012562Y+016562
X+012562Y+015562
X+012562Y+014562
X+012562Y+013562
X+012562Y+012562
X+012562Y+011562
X+012562Y+010562
X+012562Y+009562
X+012562Y+008562
X+012562Y+007562
X+012562Y+006562
X+012562Y+005562
X+013562Y+028140
X+013562Y+029125
X+013562Y+030109
X+007499Y+030109
X+007499Y+028140
T04
X+006562Y+004562
X+012562Y+004562
X+013187Y+021937
X+013187Y+022937
X+013187Y+023937
X+013187Y+024937
X+010187Y+024937
X+009312Y+024937
X+009312Y+023937
X+010187Y+023937
X+010187Y+022937
X+009312Y+022937
X+009312Y+021937
X+010187Y+021937
X+006312Y+021937
X+006312Y+022937
X+006312Y+023937
X+006312Y+024937
T05
X+010375Y+009125
X+008603Y+009125
X+008603Y+006565
X+010375Y+006565
T06
X+011375Y+019812
X+010375Y+019812
X+009375Y+019812
X+008375Y+019812
T07
X+010629Y+031762G85X+010432Y+031762
X+010629Y+026487G85X+010432Y+026487
T08
X+013750Y+032750
X+004937Y+032750
X+004937Y+004937
X+013750Y+004937
T00
M30
