G04 DipTrace 3.3.0.0*
G04 TopMask.gbr*
%MOIN*%
G04 #@! TF.FileFunction,Soldermask,Top*
G04 #@! TF.Part,Single*
%ADD16C,0.066929*%
%ADD27C,0.1*%
%ADD28C,0.039*%
%ADD37C,0.066374*%
%ADD39R,0.066374X0.066374*%
%ADD41R,0.049213X0.074803*%
%ADD43O,0.047244X0.066929*%
%ADD45O,0.165354X0.086614*%
%ADD47C,0.072835*%
%ADD49C,0.057874*%
%ADD51C,0.057874*%
%ADD54C,0.074803*%
%ADD55R,0.074803X0.074803*%
%FSLAX26Y26*%
G04*
G70*
G90*
G75*
G01*
G04 TopMask*
%LPD*%
D27*
X1374951Y3274950D3*
D28*
X656202Y456201D3*
X1256202D3*
D27*
X493703Y3274950D3*
X493711Y493720D3*
X1374951Y493701D3*
D55*
X1137451Y1981201D3*
D54*
X1037451D3*
X937451D3*
X837451D3*
D16*
X656202Y556202D3*
Y656202D3*
Y756201D3*
Y856202D3*
Y956202D3*
Y1056201D3*
Y1156202D3*
Y1256202D3*
Y1356201D3*
Y1456202D3*
Y1556202D3*
Y1656201D3*
X1256202Y556202D3*
Y656202D3*
Y756201D3*
Y856202D3*
Y956202D3*
Y1056201D3*
Y1156202D3*
Y1256202D3*
Y1356201D3*
Y1456202D3*
Y1556202D3*
Y1656201D3*
X656202Y1756202D3*
Y1856202D3*
X1256202Y1756202D3*
Y1856202D3*
D51*
X649951Y2956201D3*
D49*
Y2656201D3*
D51*
X549953Y2956201D3*
D49*
Y2656201D3*
D51*
X449951Y2956201D3*
D49*
Y2656201D3*
D51*
X812451Y1068701D3*
D49*
Y1368701D3*
D51*
X956202Y1237450D3*
D49*
Y1537450D3*
D47*
X1356201Y2912450D3*
Y3010875D3*
Y2814025D3*
X749902D3*
Y3010875D3*
D45*
X1053051Y3176230D3*
Y2648671D3*
D43*
X499952Y3118699D3*
X599952D3*
D41*
X649952D3*
D43*
X549952D3*
D55*
X1037451Y912450D3*
D54*
X860286D3*
Y656545D3*
X1037451D3*
D39*
X1018701Y2493701D3*
D37*
Y2393701D3*
Y2293701D3*
Y2193701D3*
X1318701D3*
Y2293701D3*
Y2393701D3*
Y2493701D3*
D39*
X631201D3*
D37*
Y2393701D3*
Y2293701D3*
Y2193701D3*
X931201D3*
Y2293701D3*
Y2393701D3*
Y2493701D3*
M02*
