G04 DipTrace 3.3.1.3*
G04 TopAssy.gbr*
%MOIN*%
G04 #@! TF.FileFunction,Drawing,Top*
G04 #@! TF.Part,Single*
%ADD10C,0.009843*%
%ADD24C,0.006*%
%ADD58C,0.003088*%
%FSLAX26Y26*%
G04*
G70*
G90*
G75*
G01*
G04 TopAssy*
%LPD*%
X1226822Y1921356D2*
D10*
X748081D1*
X1038709Y2473706D2*
D24*
Y2513695D1*
X999704D1*
Y2473706D1*
X1038709D1*
Y2373693D2*
Y2413683D1*
X999704D1*
Y2373693D1*
X1038709D1*
Y2273719D2*
Y2313709D1*
X999704D1*
Y2273719D1*
X1038709D1*
Y2173706D2*
Y2213696D1*
X999704Y2212692D1*
Y2173706D1*
X1038709D1*
X1298693Y2213696D2*
Y2173706D1*
X1337698Y2174710D1*
Y2213696D1*
X1298693D1*
Y2313709D2*
Y2273719D1*
X1337698Y2274684D1*
Y2313709D1*
X1298693D1*
Y2413683D2*
Y2373693D1*
X1337698D1*
Y2413683D1*
X1298693D1*
Y2513695D2*
Y2473706D1*
X1337698D1*
Y2513695D1*
X1298693D1*
X1038709Y2150701D2*
X1298693D1*
Y2536701D1*
X1038709D1*
Y2150701D1*
X651209Y2473706D2*
Y2513695D1*
X612204D1*
Y2473706D1*
X651209D1*
Y2373693D2*
Y2413683D1*
X612204D1*
Y2373693D1*
X651209D1*
Y2273719D2*
Y2313709D1*
X612204D1*
Y2273719D1*
X651209D1*
Y2173706D2*
Y2213696D1*
X612204Y2212692D1*
Y2173706D1*
X651209D1*
X911193Y2213696D2*
Y2173706D1*
X950198Y2174710D1*
Y2213696D1*
X911193D1*
Y2313709D2*
Y2273719D1*
X950198Y2274684D1*
Y2313709D1*
X911193D1*
Y2413683D2*
Y2373693D1*
X950198D1*
Y2413683D1*
X911193D1*
Y2513695D2*
Y2473706D1*
X950198D1*
Y2513695D1*
X911193D1*
X651209Y2150701D2*
X911193D1*
Y2536701D1*
X651209D1*
Y2150701D1*
X806192Y581143D2*
D10*
X1106213D1*
Y381201D1*
X806192D1*
Y581143D1*
X1086874Y1887984D2*
D58*
Y1908080D1*
X1078252D1*
X1075378Y1907108D1*
X1074427Y1906157D1*
X1073476Y1904256D1*
Y1901382D1*
X1074427Y1899458D1*
X1075378Y1898508D1*
X1078252Y1897557D1*
X1075378Y1896584D1*
X1074427Y1895634D1*
X1073476Y1893732D1*
Y1891809D1*
X1074427Y1889908D1*
X1075378Y1888935D1*
X1078252Y1887984D1*
X1086874D1*
Y1897557D2*
X1078252D1*
X1061553Y1887984D2*
X1063476Y1888935D1*
X1065377Y1890858D1*
X1066350Y1892760D1*
X1067301Y1895634D1*
Y1900431D1*
X1066350Y1903283D1*
X1065377Y1905206D1*
X1063476Y1907108D1*
X1061553Y1908080D1*
X1057728D1*
X1055827Y1907108D1*
X1053903Y1905206D1*
X1052953Y1903283D1*
X1052002Y1900431D1*
Y1895634D1*
X1052953Y1892760D1*
X1053903Y1890858D1*
X1055827Y1888935D1*
X1057728Y1887984D1*
X1061553D1*
X1030506Y1908080D2*
X1038177Y1887984D1*
X1045826Y1908080D1*
X1042952Y1901382D2*
X1033380D1*
X1024330Y1897557D2*
X1015730D1*
X1012856Y1896584D1*
X1011883Y1895634D1*
X1010933Y1893732D1*
Y1891809D1*
X1011883Y1889908D1*
X1012856Y1888935D1*
X1015730Y1887984D1*
X1024330D1*
Y1908080D1*
X1017631Y1897557D2*
X1010933Y1908080D1*
X1004757Y1887984D2*
Y1908080D1*
X998058D1*
X995184Y1907108D1*
X993261Y1905206D1*
X992310Y1903283D1*
X991360Y1900431D1*
Y1895634D1*
X992310Y1892760D1*
X993261Y1890858D1*
X995184Y1888935D1*
X998058Y1887984D1*
X1004757D1*
X953319D2*
X965744D1*
Y1908080D1*
X953319D1*
X965744Y1897557D2*
X958094D1*
X947143Y1887984D2*
Y1908080D1*
X940445D1*
X937571Y1907108D1*
X935647Y1905206D1*
X934697Y1903283D1*
X933746Y1900431D1*
Y1895634D1*
X934697Y1892760D1*
X935647Y1890858D1*
X937571Y1888935D1*
X940445Y1887984D1*
X947143D1*
X913222Y1892760D2*
X914173Y1890858D1*
X916096Y1888935D1*
X917998Y1887984D1*
X921822D1*
X923746Y1888935D1*
X925647Y1890858D1*
X926620Y1892760D1*
X927570Y1895634D1*
Y1900431D1*
X926620Y1903283D1*
X925647Y1905206D1*
X923746Y1907108D1*
X921822Y1908080D1*
X917998D1*
X916096Y1907108D1*
X914173Y1905206D1*
X913222Y1903283D1*
Y1900431D1*
X917998D1*
X894622Y1887984D2*
X907047D1*
Y1908080D1*
X894622D1*
X907047Y1897557D2*
X899397D1*
M02*
