G04 DipTrace 3.3.0.0*
G04 TopSilk.gbr*
%MOIN*%
G04 #@! TF.FileFunction,Legend,Top*
G04 #@! TF.Part,Single*
%ADD10C,0.009843*%
%ADD12C,0.003*%
%ADD24C,0.006*%
%ADD57C,0.00772*%
%ADD58C,0.003088*%
%FSLAX26Y26*%
G04*
G70*
G90*
G75*
G01*
G04 TopSilk*
%LPD*%
X1187469Y1931196D2*
D10*
X787434D1*
Y2031201D1*
X1187469D1*
Y1931196D1*
X679951Y2886351D2*
X619951D1*
X679951Y2726051D2*
Y2886351D1*
Y2726051D2*
X619951D1*
Y2886351D1*
X579953D2*
X519953D1*
X579953Y2726051D2*
Y2886351D1*
Y2726051D2*
X519953D1*
Y2886351D1*
X479951D2*
X419951D1*
X479951Y2726051D2*
Y2886351D1*
Y2726051D2*
X419951D1*
Y2886351D1*
X782451Y1138551D2*
X842451D1*
X782451Y1298851D2*
Y1138551D1*
Y1298851D2*
X842451D1*
Y1138551D1*
X926202Y1307300D2*
X986202D1*
X926202Y1467600D2*
Y1307300D1*
Y1467600D2*
X986202D1*
Y1307300D1*
X1316856Y2668354D2*
X789246D1*
Y3156546D1*
X1316856D1*
Y2668354D1*
X934909Y2912420D2*
G02X934909Y2912420I118142J0D01*
G01*
X1053051Y2862430D2*
Y2962470D1*
X1003042Y2912450D2*
X1103060D1*
X673377Y3057609D2*
Y3065507D1*
Y3171892D2*
Y3179790D1*
Y3057609D2*
G02X458810Y3118699I-98651J60865D01*
G01*
X673377Y3179790D2*
G03X458810Y3118699I-98651J-60865D01*
G01*
X878008Y784497D2*
G02X878008Y784497I70861J0D01*
G01*
X830751Y875052D2*
Y693942D1*
X909472Y666372D2*
X988241D1*
X1066986Y693942D2*
Y859298D1*
X988241Y902623D2*
X909472D1*
X889798Y784497D2*
G02X889798Y784497I59059J0D01*
G01*
X1298693Y2431709D2*
D24*
Y2455718D1*
Y2331696D2*
Y2355705D1*
X1038709Y2255693D2*
Y2231684D1*
Y2355705D2*
Y2331696D1*
Y2150701D2*
X1298693D1*
Y2231684D2*
Y2255693D1*
Y2536701D2*
X1049715D1*
X1038709Y2450700D2*
Y2431709D1*
X911193D2*
Y2455718D1*
Y2331696D2*
Y2355705D1*
X651209Y2255693D2*
Y2231684D1*
Y2355705D2*
Y2331696D1*
Y2150701D2*
X911193D1*
Y2231684D2*
Y2255693D1*
Y2536701D2*
X662215D1*
X651209Y2450700D2*
Y2431709D1*
X606202Y1912451D2*
D10*
X1306202D1*
Y456197D1*
X606202D1*
Y1912451D1*
X1373337Y1331701D2*
D12*
X1415337D1*
X1372132Y1330201D2*
X1454337D1*
X1371261Y1328701D2*
X1455542D1*
X1370675Y1327201D2*
X1456420D1*
X1370658Y1325701D2*
X1456922D1*
X1371280Y1324201D2*
X1457166D1*
X1372227Y1322701D2*
X1457271D1*
X1373337Y1321201D2*
X1457313D1*
X1406105Y1319701D2*
X1415337D1*
X1428837D2*
X1457329D1*
X1405734Y1318201D2*
X1415337D1*
X1448337D2*
X1457334D1*
X1405345Y1316701D2*
X1415337D1*
X1448337D2*
X1457336D1*
X1405082Y1315201D2*
X1415337D1*
X1448337D2*
X1457337D1*
X1404949Y1313701D2*
X1415337D1*
X1448337D2*
X1457337D1*
X1404938Y1312201D2*
X1415343D1*
X1448337D2*
X1457337D1*
X1405103Y1310701D2*
X1415396D1*
X1448331D2*
X1457337D1*
X1405452Y1309201D2*
X1415587D1*
X1448279D2*
X1457337D1*
X1405839Y1307701D2*
X1415952D1*
X1448082D2*
X1457331D1*
X1406152Y1306201D2*
X1416395D1*
X1447670D2*
X1457279D1*
X1406482Y1304701D2*
X1416901D1*
X1447088D2*
X1457088D1*
X1406910Y1303201D2*
X1417596D1*
X1446409D2*
X1456722D1*
X1407374Y1301701D2*
X1418468D1*
X1445635D2*
X1456285D1*
X1407842Y1300201D2*
X1419449D1*
X1444695D2*
X1455826D1*
X1408403Y1298701D2*
X1420754D1*
X1443442D2*
X1455270D1*
X1409097Y1297201D2*
X1422905D1*
X1441906D2*
X1454577D1*
X1409941Y1295701D2*
X1426634D1*
X1438198D2*
X1453733D1*
X1410893Y1294201D2*
X1432383D1*
X1432622D2*
X1452782D1*
X1411856Y1292701D2*
X1451818D1*
X1412899Y1291201D2*
X1450781D1*
X1414165Y1289701D2*
X1449568D1*
X1415770Y1288201D2*
X1448155D1*
X1417868Y1286701D2*
X1446416D1*
X1420564Y1285201D2*
X1444108D1*
X1423809Y1283701D2*
X1441147D1*
X1427337Y1282201D2*
X1437837D1*
X1388337Y1276201D2*
X1403337D1*
X1384196Y1274701D2*
X1407484D1*
X1380818Y1273201D2*
X1410916D1*
X1378211Y1271701D2*
X1413713D1*
X1376254Y1270201D2*
X1416035D1*
X1374746Y1268701D2*
X1417980D1*
X1373494Y1267201D2*
X1419685D1*
X1372461Y1265701D2*
X1421223D1*
X1371623Y1264201D2*
X1388701D1*
X1402979D2*
X1422561D1*
X1371001Y1262701D2*
X1385127D1*
X1406606D2*
X1423662D1*
X1370587Y1261201D2*
X1382431D1*
X1409499D2*
X1424586D1*
X1370216Y1259701D2*
X1380599D1*
X1411749D2*
X1425414D1*
X1369778Y1258201D2*
X1379383D1*
X1413593D2*
X1426193D1*
X1369362Y1256701D2*
X1378606D1*
X1415188D2*
X1426951D1*
X1369089Y1255201D2*
X1378181D1*
X1416549D2*
X1427651D1*
X1368951Y1253701D2*
X1377979D1*
X1417652D2*
X1428207D1*
X1368939Y1252201D2*
X1377892D1*
X1418526D2*
X1428544D1*
X1369103Y1250701D2*
X1377863D1*
X1419163D2*
X1428714D1*
X1369452Y1249201D2*
X1377903D1*
X1419584D2*
X1428789D1*
X1369839Y1247701D2*
X1378095D1*
X1419951D2*
X1428819D1*
X1370152Y1246201D2*
X1378512D1*
X1420337D2*
X1428831D1*
X1370487Y1244701D2*
X1379139D1*
X1420677D2*
X1428835D1*
X1370963Y1243201D2*
X1379992D1*
X1420431D2*
X1428837D1*
X1371571Y1241701D2*
X1381035D1*
X1419977D2*
X1428831D1*
X1372254Y1240201D2*
X1383553D1*
X1418576D2*
X1428779D1*
X1372967Y1238701D2*
X1387646D1*
X1394337D2*
X1413837D1*
X1416438D2*
X1428587D1*
X1373594Y1237201D2*
X1428222D1*
X1374079Y1235701D2*
X1427785D1*
X1373827Y1234201D2*
X1427326D1*
X1372854Y1232701D2*
X1426770D1*
X1371694Y1231201D2*
X1426072D1*
X1370570Y1229701D2*
X1425179D1*
X1369737Y1228201D2*
X1424063D1*
X1369170Y1226701D2*
X1386899D1*
X1415337D2*
X1422837D1*
X1369266Y1225201D2*
X1382632D1*
X1369697Y1223701D2*
X1378645D1*
X1370337Y1222201D2*
X1374837D1*
X1376337Y1216201D2*
X1380837D1*
X1375075Y1214701D2*
X1382222D1*
X1374000Y1213201D2*
X1383248D1*
X1373085Y1211701D2*
X1383498D1*
X1406337D2*
X1415337D1*
X1372266Y1210201D2*
X1383555D1*
X1404562D2*
X1418222D1*
X1371539Y1208701D2*
X1382964D1*
X1403040D2*
X1420578D1*
X1370968Y1207201D2*
X1382169D1*
X1401841D2*
X1422461D1*
X1370574Y1205701D2*
X1381336D1*
X1400875D2*
X1423957D1*
X1370212Y1204201D2*
X1380577D1*
X1400083D2*
X1425118D1*
X1369777Y1202701D2*
X1379991D1*
X1399484D2*
X1426019D1*
X1369362Y1201201D2*
X1379640D1*
X1399080D2*
X1426712D1*
X1369088Y1199701D2*
X1379464D1*
X1398714D2*
X1409280D1*
X1413831D2*
X1427280D1*
X1368945Y1198201D2*
X1379387D1*
X1398278D2*
X1409088D1*
X1415279D2*
X1427874D1*
X1368880Y1196701D2*
X1379356D1*
X1397862D2*
X1408728D1*
X1416582D2*
X1428530D1*
X1368853Y1195201D2*
X1379344D1*
X1397583D2*
X1408338D1*
X1417670D2*
X1429183D1*
X1368843Y1193701D2*
X1379339D1*
X1397387D2*
X1408023D1*
X1418588D2*
X1429724D1*
X1368839Y1192201D2*
X1379338D1*
X1397124D2*
X1407693D1*
X1419409D2*
X1430107D1*
X1368844Y1190701D2*
X1379343D1*
X1396686D2*
X1407264D1*
X1420141D2*
X1430465D1*
X1368896Y1189201D2*
X1379396D1*
X1396094D2*
X1406801D1*
X1420760D2*
X1430904D1*
X1369087Y1187701D2*
X1379593D1*
X1395405D2*
X1406338D1*
X1421292D2*
X1431372D1*
X1369452Y1186201D2*
X1380034D1*
X1394548D2*
X1405830D1*
X1421822D2*
X1431842D1*
X1369889Y1184701D2*
X1380668D1*
X1393482D2*
X1405328D1*
X1422271D2*
X1432397D1*
X1370342Y1183201D2*
X1382217D1*
X1390533D2*
X1404842D1*
X1422582D2*
X1433038D1*
X1370846Y1181701D2*
X1385729D1*
X1386138D2*
X1404275D1*
X1422348D2*
X1433686D1*
X1371353Y1180201D2*
X1403573D1*
X1421078D2*
X1434219D1*
X1371891Y1178701D2*
X1402675D1*
X1419381D2*
X1434548D1*
X1372649Y1177201D2*
X1401526D1*
X1417729D2*
X1434715D1*
X1373716Y1175701D2*
X1400145D1*
X1416353D2*
X1434784D1*
X1375056Y1174201D2*
X1398474D1*
X1415764D2*
X1434726D1*
X1376692Y1172701D2*
X1396401D1*
X1415689D2*
X1434512D1*
X1378666Y1171201D2*
X1393954D1*
X1416294D2*
X1433059D1*
X1380837Y1169701D2*
X1391337D1*
X1417232D2*
X1429076D1*
X1418337Y1168201D2*
X1424337D1*
X1376337Y1159201D2*
X1380837D1*
X1375075Y1157701D2*
X1382222D1*
X1374000Y1156201D2*
X1383248D1*
X1373085Y1154701D2*
X1383498D1*
X1406337D2*
X1415337D1*
X1372266Y1153201D2*
X1383555D1*
X1404562D2*
X1418222D1*
X1371539Y1151701D2*
X1382964D1*
X1403040D2*
X1420578D1*
X1370968Y1150201D2*
X1382169D1*
X1401841D2*
X1422461D1*
X1370574Y1148701D2*
X1381336D1*
X1400875D2*
X1423957D1*
X1370212Y1147201D2*
X1380577D1*
X1400083D2*
X1425118D1*
X1369777Y1145701D2*
X1379991D1*
X1399484D2*
X1426019D1*
X1369362Y1144201D2*
X1379640D1*
X1399080D2*
X1426712D1*
X1369088Y1142701D2*
X1379464D1*
X1398714D2*
X1409280D1*
X1413831D2*
X1427280D1*
X1368945Y1141201D2*
X1379387D1*
X1398278D2*
X1409088D1*
X1415279D2*
X1427874D1*
X1368880Y1139701D2*
X1379356D1*
X1397862D2*
X1408728D1*
X1416582D2*
X1428530D1*
X1368853Y1138201D2*
X1379344D1*
X1397583D2*
X1408338D1*
X1417670D2*
X1429183D1*
X1368843Y1136701D2*
X1379339D1*
X1397387D2*
X1408023D1*
X1418588D2*
X1429724D1*
X1368839Y1135201D2*
X1379338D1*
X1397124D2*
X1407693D1*
X1419409D2*
X1430107D1*
X1368844Y1133701D2*
X1379343D1*
X1396686D2*
X1407264D1*
X1420141D2*
X1430465D1*
X1368896Y1132201D2*
X1379396D1*
X1396094D2*
X1406801D1*
X1420760D2*
X1430904D1*
X1369087Y1130701D2*
X1379593D1*
X1395405D2*
X1406338D1*
X1421292D2*
X1431372D1*
X1369452Y1129201D2*
X1380034D1*
X1394548D2*
X1405830D1*
X1421822D2*
X1431842D1*
X1369889Y1127701D2*
X1380668D1*
X1393482D2*
X1405328D1*
X1422271D2*
X1432397D1*
X1370342Y1126201D2*
X1382217D1*
X1390533D2*
X1404842D1*
X1422582D2*
X1433038D1*
X1370846Y1124701D2*
X1385729D1*
X1386138D2*
X1404275D1*
X1422348D2*
X1433686D1*
X1371353Y1123201D2*
X1403573D1*
X1421078D2*
X1434219D1*
X1371891Y1121701D2*
X1402675D1*
X1419381D2*
X1434548D1*
X1372649Y1120201D2*
X1401526D1*
X1417729D2*
X1434715D1*
X1373716Y1118701D2*
X1400145D1*
X1416353D2*
X1434784D1*
X1375056Y1117201D2*
X1398474D1*
X1415764D2*
X1434726D1*
X1376692Y1115701D2*
X1396401D1*
X1415689D2*
X1434512D1*
X1378666Y1114201D2*
X1393954D1*
X1416294D2*
X1433059D1*
X1380837Y1112701D2*
X1391337D1*
X1417232D2*
X1429076D1*
X1418337Y1111201D2*
X1424337D1*
X1416837Y1100701D2*
X1427337D1*
X1406939Y1099201D2*
X1428030D1*
X1397801Y1097701D2*
X1428455D1*
X1389808Y1096201D2*
X1428596D1*
X1383156Y1094701D2*
X1428523D1*
X1377932Y1093201D2*
X1427286D1*
X1374076Y1091701D2*
X1422570D1*
X1371317Y1090201D2*
X1415109D1*
X1369206Y1088701D2*
X1405405D1*
X1367337Y1087201D2*
X1394739D1*
X1368330Y1085701D2*
X1383837D1*
X1369448Y1084201D2*
X1387645D1*
X1370966Y1082701D2*
X1391714D1*
X1373126Y1081201D2*
X1395996D1*
X1375971Y1079701D2*
X1400399D1*
X1379327Y1078201D2*
X1404860D1*
X1383029Y1076701D2*
X1409345D1*
X1386919Y1075201D2*
X1413828D1*
X1390803Y1073701D2*
X1418203D1*
X1394589Y1072201D2*
X1422145D1*
X1398242Y1070701D2*
X1425177D1*
X1401829Y1069201D2*
X1427427D1*
X1405527Y1067701D2*
X1428157D1*
X1409337Y1066201D2*
X1428618D1*
X1400066Y1064701D2*
X1428566D1*
X1391765Y1063201D2*
X1427963D1*
X1384828Y1061701D2*
X1426378D1*
X1379289Y1060201D2*
X1422639D1*
X1375066Y1058701D2*
X1417370D1*
X1372098Y1057201D2*
X1410720D1*
X1370159Y1055701D2*
X1403215D1*
X1368910Y1054201D2*
X1395317D1*
X1368001Y1052701D2*
X1387317D1*
X1367799Y1051201D2*
X1379337D1*
X1368238Y1049701D2*
X1385343D1*
X1369514Y1048201D2*
X1391396D1*
X1371253Y1046701D2*
X1397587D1*
X1373529Y1045201D2*
X1403940D1*
X1376465Y1043701D2*
X1410255D1*
X1380080Y1042201D2*
X1416144D1*
X1384207Y1040701D2*
X1421115D1*
X1388764Y1039201D2*
X1424718D1*
X1393745Y1037701D2*
X1427302D1*
X1399020Y1036201D2*
X1428249D1*
X1404405Y1034701D2*
X1428506D1*
X1409908Y1033201D2*
X1428567D1*
X1415579Y1031701D2*
X1428025D1*
X1421337Y1030201D2*
X1427337D1*
X1389837Y1021201D2*
X1404837D1*
X1386208Y1019701D2*
X1408805D1*
X1383028Y1018201D2*
X1412252D1*
X1380419Y1016701D2*
X1415116D1*
X1378316Y1015201D2*
X1417488D1*
X1376538Y1013701D2*
X1419460D1*
X1374970Y1012201D2*
X1421177D1*
X1373620Y1010701D2*
X1422720D1*
X1372520Y1009201D2*
X1390427D1*
X1402685D2*
X1424060D1*
X1371642Y1007701D2*
X1387172D1*
X1407188D2*
X1425162D1*
X1370958Y1006201D2*
X1384674D1*
X1410584D2*
X1426086D1*
X1370399Y1004701D2*
X1382745D1*
X1413071D2*
X1426908D1*
X1369858Y1003201D2*
X1381284D1*
X1414968D2*
X1427635D1*
X1369394Y1001701D2*
X1380146D1*
X1416414D2*
X1428201D1*
X1369101Y1000201D2*
X1379730D1*
X1417431D2*
X1428542D1*
X1368950Y998701D2*
X1379505D1*
X1418156D2*
X1428713D1*
X1368882Y997201D2*
X1379409D1*
X1418764D2*
X1428789D1*
X1368860Y995701D2*
X1379420D1*
X1419204D2*
X1428819D1*
X1368902Y994201D2*
X1379601D1*
X1419444D2*
X1428831D1*
X1369095Y992701D2*
X1380014D1*
X1419082D2*
X1428835D1*
X1369506Y991201D2*
X1380652D1*
X1418493D2*
X1428831D1*
X1370087Y989701D2*
X1381580D1*
X1417632D2*
X1428778D1*
X1370760Y988201D2*
X1382963D1*
X1416392D2*
X1428582D1*
X1371481Y986701D2*
X1384890D1*
X1414578D2*
X1428170D1*
X1372224Y985201D2*
X1387303D1*
X1411951D2*
X1427588D1*
X1373029Y983701D2*
X1390014D1*
X1408566D2*
X1426909D1*
X1374027Y982201D2*
X1426129D1*
X1375386Y980701D2*
X1425142D1*
X1377134Y979201D2*
X1423780D1*
X1379205Y977701D2*
X1421969D1*
X1381660Y976201D2*
X1419604D1*
X1384743Y974701D2*
X1416433D1*
X1388574Y973201D2*
X1412367D1*
X1392837Y971701D2*
X1407837D1*
X1370337Y956701D2*
X1427337D1*
X1369645Y955201D2*
X1428030D1*
X1369214Y953701D2*
X1428455D1*
X1369002Y952201D2*
X1428614D1*
X1368962Y950701D2*
X1428594D1*
X1369155Y949201D2*
X1427995D1*
X1369653Y947701D2*
X1426382D1*
X1370337Y946201D2*
X1424075D1*
X1406274Y944701D2*
X1421337D1*
X1409023Y943201D2*
X1422324D1*
X1411414Y941701D2*
X1423372D1*
X1413415Y940201D2*
X1424535D1*
X1415107Y938701D2*
X1425691D1*
X1416515Y937201D2*
X1426707D1*
X1417640Y935701D2*
X1427551D1*
X1418527Y934201D2*
X1428223D1*
X1419215Y932701D2*
X1428778D1*
X1419776Y931201D2*
X1429317D1*
X1420330Y929701D2*
X1429780D1*
X1420859Y928201D2*
X1430074D1*
X1421337Y926701D2*
X1430225D1*
X1415228Y925201D2*
X1430293D1*
X1411149Y923701D2*
X1430315D1*
X1408367Y922201D2*
X1430267D1*
X1407371Y920701D2*
X1430015D1*
X1407289Y919201D2*
X1429531D1*
X1408047Y917701D2*
X1428172D1*
X1409284Y916201D2*
X1426382D1*
X1410837Y914701D2*
X1424337D1*
X1389837Y905701D2*
X1404837D1*
X1386434Y904201D2*
X1409159D1*
X1383579Y902701D2*
X1412770D1*
X1381220Y901201D2*
X1415597D1*
X1379212Y899701D2*
X1417796D1*
X1377548Y898201D2*
X1419619D1*
X1376167Y896701D2*
X1421249D1*
X1374965Y895201D2*
X1422749D1*
X1373945Y893701D2*
X1391400D1*
X1405979D2*
X1424071D1*
X1373061Y892201D2*
X1388651D1*
X1409606D2*
X1425166D1*
X1372256Y890701D2*
X1386266D1*
X1412493D2*
X1426087D1*
X1371536Y889201D2*
X1384313D1*
X1414690D2*
X1426908D1*
X1370972Y887701D2*
X1382765D1*
X1416343D2*
X1427635D1*
X1370632Y886201D2*
X1381577D1*
X1417573D2*
X1428201D1*
X1370461Y884701D2*
X1380669D1*
X1418497D2*
X1428542D1*
X1370386Y883201D2*
X1380024D1*
X1419147D2*
X1428713D1*
X1370355Y881701D2*
X1379651D1*
X1419522D2*
X1428789D1*
X1370344Y880201D2*
X1379468D1*
X1419706D2*
X1428819D1*
X1370339Y878701D2*
X1379388D1*
X1419786D2*
X1428831D1*
X1370338Y877201D2*
X1379362D1*
X1419819D2*
X1428835D1*
X1370343Y875701D2*
X1379402D1*
X1419825D2*
X1428837D1*
X1370396Y874201D2*
X1379595D1*
X1419776D2*
X1428831D1*
X1370587Y872701D2*
X1380011D1*
X1419581D2*
X1428779D1*
X1370952Y871201D2*
X1380645D1*
X1419164D2*
X1428582D1*
X1371389Y869701D2*
X1381510D1*
X1418524D2*
X1428170D1*
X1371848Y868201D2*
X1382584D1*
X1417594D2*
X1427588D1*
X1372404Y866701D2*
X1383653D1*
X1416212D2*
X1426910D1*
X1373088Y865201D2*
X1384470D1*
X1414290D2*
X1426150D1*
X1373912Y863701D2*
X1384978D1*
X1411913D2*
X1425287D1*
X1374837Y862201D2*
X1424337D1*
X1373400Y860701D2*
X1438058D1*
X1372151Y859201D2*
X1448452D1*
X1371266Y857701D2*
X1454754D1*
X1370675Y856201D2*
X1458669D1*
X1370658Y854701D2*
X1459722D1*
X1371280Y853201D2*
X1459939D1*
X1372227Y851701D2*
X1459472D1*
X1373337Y850201D2*
X1383837D1*
X1431837D2*
X1458837D1*
X1373337Y835201D2*
X1415337D1*
X1372132Y833701D2*
X1454337D1*
X1371261Y832201D2*
X1455542D1*
X1370675Y830701D2*
X1456420D1*
X1370658Y829201D2*
X1456922D1*
X1371280Y827701D2*
X1457166D1*
X1372227Y826201D2*
X1457271D1*
X1373337Y824701D2*
X1457313D1*
X1406105Y823201D2*
X1415337D1*
X1428837D2*
X1457329D1*
X1405734Y821701D2*
X1415337D1*
X1448337D2*
X1457334D1*
X1405345Y820201D2*
X1415337D1*
X1448337D2*
X1457336D1*
X1405082Y818701D2*
X1415337D1*
X1448337D2*
X1457337D1*
X1404949Y817201D2*
X1415337D1*
X1448337D2*
X1457337D1*
X1404938Y815701D2*
X1415343D1*
X1448337D2*
X1457337D1*
X1405103Y814201D2*
X1415396D1*
X1448331D2*
X1457337D1*
X1405452Y812701D2*
X1415587D1*
X1448279D2*
X1457337D1*
X1405839Y811201D2*
X1415952D1*
X1448082D2*
X1457331D1*
X1406152Y809701D2*
X1416395D1*
X1447670D2*
X1457279D1*
X1406482Y808201D2*
X1416901D1*
X1447088D2*
X1457088D1*
X1406910Y806701D2*
X1417596D1*
X1446409D2*
X1456722D1*
X1407374Y805201D2*
X1418468D1*
X1445635D2*
X1456285D1*
X1407842Y803701D2*
X1419449D1*
X1444695D2*
X1455826D1*
X1408403Y802201D2*
X1420754D1*
X1443442D2*
X1455270D1*
X1409097Y800701D2*
X1422905D1*
X1441906D2*
X1454577D1*
X1409941Y799201D2*
X1426634D1*
X1438198D2*
X1453733D1*
X1410893Y797701D2*
X1432383D1*
X1432622D2*
X1452782D1*
X1411856Y796201D2*
X1451818D1*
X1412899Y794701D2*
X1450781D1*
X1414165Y793201D2*
X1449568D1*
X1415770Y791701D2*
X1448155D1*
X1417868Y790201D2*
X1446416D1*
X1420564Y788701D2*
X1444108D1*
X1423809Y787201D2*
X1441147D1*
X1427337Y785701D2*
X1437837D1*
X1391337Y776701D2*
X1419837D1*
X1384478Y775201D2*
X1423812D1*
X1379521Y773701D2*
X1426877D1*
X1376264Y772201D2*
X1428084D1*
X1374137Y770701D2*
X1428486D1*
X1372715Y769201D2*
X1428635D1*
X1371718Y767701D2*
X1428490D1*
X1371041Y766201D2*
X1428012D1*
X1370651Y764701D2*
X1388011D1*
X1416837D2*
X1427337D1*
X1370411Y763201D2*
X1384449D1*
X1370139Y761701D2*
X1381911D1*
X1369747Y760201D2*
X1380830D1*
X1369350Y758701D2*
X1380087D1*
X1369090Y757201D2*
X1379674D1*
X1369002Y755701D2*
X1379476D1*
X1369129Y754201D2*
X1379396D1*
X1369462Y752701D2*
X1379415D1*
X1369837Y751201D2*
X1379594D1*
X1370100Y749701D2*
X1379949D1*
X1370291Y748201D2*
X1380332D1*
X1370545Y746701D2*
X1380599D1*
X1370931Y745201D2*
X1380796D1*
X1371314Y743701D2*
X1381109D1*
X1371473Y742201D2*
X1381739D1*
X1371398Y740701D2*
X1382709D1*
X1370562Y739201D2*
X1427337D1*
X1369595Y737701D2*
X1428030D1*
X1368721Y736201D2*
X1428460D1*
X1367979Y734701D2*
X1428673D1*
X1367794Y733201D2*
X1428712D1*
X1368345Y731701D2*
X1428520D1*
X1369252Y730201D2*
X1428022D1*
X1370337Y728701D2*
X1427337D1*
X1376337Y715201D2*
X1391337D1*
X1415337D2*
X1425837D1*
X1373690Y713701D2*
X1428659D1*
X1371765Y712201D2*
X1430770D1*
X1370317Y710701D2*
X1432335D1*
X1369679Y709201D2*
X1432923D1*
X1369812Y707701D2*
X1432991D1*
X1370262Y706201D2*
X1432296D1*
X1370976Y704701D2*
X1428872D1*
X1371837Y703201D2*
X1377837D1*
X1391300D2*
X1422934D1*
X1398436Y701701D2*
X1415337D1*
X1403338Y700201D2*
X1417530D1*
X1406563Y698701D2*
X1419460D1*
X1408834Y697201D2*
X1421178D1*
X1410650Y695701D2*
X1422769D1*
X1412270Y694201D2*
X1424256D1*
X1413814Y692701D2*
X1425574D1*
X1415330Y691201D2*
X1426661D1*
X1416835Y689701D2*
X1427529D1*
X1418337Y688201D2*
X1428159D1*
X1419837Y686701D2*
X1428526D1*
X1416837Y685201D2*
X1428707D1*
X1397337Y683701D2*
X1428781D1*
X1385233Y682201D2*
X1428760D1*
X1376073Y680701D2*
X1428575D1*
X1369538Y679201D2*
X1428156D1*
X1367230Y677701D2*
X1427470D1*
X1366327Y676201D2*
X1426408D1*
X1366117Y674701D2*
X1424905D1*
X1366090Y673201D2*
X1423148D1*
X1366642Y671701D2*
X1394337D1*
X1412632D2*
X1421337D1*
X1367337Y670201D2*
X1380837D1*
X1413249D2*
X1423011D1*
X1414194Y668701D2*
X1424443D1*
X1415253Y667201D2*
X1425679D1*
X1416236Y665701D2*
X1426711D1*
X1417117Y664201D2*
X1427550D1*
X1417967Y662701D2*
X1428167D1*
X1418868Y661201D2*
X1428529D1*
X1419837Y659701D2*
X1428708D1*
X1417673Y658201D2*
X1428787D1*
X1414554Y656701D2*
X1428819D1*
X1409891Y655201D2*
X1428831D1*
X1403434Y653701D2*
X1428829D1*
X1395487Y652201D2*
X1428772D1*
X1387098Y650701D2*
X1428523D1*
X1379709Y649201D2*
X1427908D1*
X1374293Y647701D2*
X1426844D1*
X1370308Y646201D2*
X1425199D1*
X1368579Y644701D2*
X1422461D1*
X1367832Y643201D2*
X1417793D1*
X1367710Y641701D2*
X1410631D1*
X1368302Y640201D2*
X1401264D1*
X1369235Y638701D2*
X1390554D1*
X1370337Y637201D2*
X1379337D1*
X1412337Y625201D2*
X1427337D1*
X1341837Y623701D2*
X1429467D1*
X1341145Y622201D2*
X1431147D1*
X1340714Y620701D2*
X1432445D1*
X1340502Y619201D2*
X1432843D1*
X1340462Y617701D2*
X1433004D1*
X1340655Y616201D2*
X1432417D1*
X1341153Y614701D2*
X1430298D1*
X1341837Y613201D2*
X1426960D1*
X1371780Y611701D2*
X1382105D1*
X1412280D2*
X1422837D1*
X1371588Y610201D2*
X1381734D1*
X1413588D2*
X1424100D1*
X1371228Y608701D2*
X1381345D1*
X1414722D2*
X1425175D1*
X1370844Y607201D2*
X1381082D1*
X1415779D2*
X1426090D1*
X1370582Y605701D2*
X1380943D1*
X1416774D2*
X1426909D1*
X1370443Y604201D2*
X1380879D1*
X1417578D2*
X1427635D1*
X1370379Y602701D2*
X1380853D1*
X1418212D2*
X1428201D1*
X1370353Y601201D2*
X1380843D1*
X1418790D2*
X1428542D1*
X1370343Y599701D2*
X1380845D1*
X1419264D2*
X1428713D1*
X1370345Y598201D2*
X1380902D1*
X1419512D2*
X1428789D1*
X1370397Y596701D2*
X1381152D1*
X1419468D2*
X1428819D1*
X1370587Y595201D2*
X1381761D1*
X1419113D2*
X1428831D1*
X1370952Y593701D2*
X1382766D1*
X1418443D2*
X1428829D1*
X1371395Y592201D2*
X1384203D1*
X1417522D2*
X1428778D1*
X1371901Y590701D2*
X1386045D1*
X1414672D2*
X1428581D1*
X1372596Y589201D2*
X1391770D1*
X1409151D2*
X1428164D1*
X1373462Y587701D2*
X1400940D1*
X1399876D2*
X1427529D1*
X1374390Y586201D2*
X1426659D1*
X1375463Y584701D2*
X1425520D1*
X1376860Y583201D2*
X1424143D1*
X1378636Y581701D2*
X1422455D1*
X1380816Y580201D2*
X1420207D1*
X1383617Y578701D2*
X1417031D1*
X1387238Y577201D2*
X1412754D1*
X1391337Y575701D2*
X1407837D1*
X1373337Y1331701D2*
X1372132Y1330201D1*
X1371261Y1328701D1*
X1370675Y1327201D1*
X1370658Y1325701D1*
X1371280Y1324201D1*
X1372227Y1322701D1*
X1373337Y1321201D1*
X1415337Y1331701D2*
Y1330201D1*
X1454337D2*
X1455542Y1328701D1*
X1456420Y1327201D1*
X1456922Y1325701D1*
X1457166Y1324201D1*
X1457271Y1322701D1*
X1457313Y1321201D1*
X1457329Y1319701D1*
X1457334Y1318201D1*
X1457336Y1316701D1*
X1457337Y1315201D1*
Y1313701D1*
Y1312201D1*
Y1310701D1*
Y1309201D1*
X1457331Y1307701D1*
X1457279Y1306201D1*
X1457088Y1304701D1*
X1456722Y1303201D1*
X1456285Y1301701D1*
X1455826Y1300201D1*
X1455270Y1298701D1*
X1454577Y1297201D1*
X1453733Y1295701D1*
X1452782Y1294201D1*
X1451818Y1292701D1*
X1450781Y1291201D1*
X1449568Y1289701D1*
X1448155Y1288201D1*
X1446416Y1286701D1*
X1444108Y1285201D1*
X1441147Y1283701D1*
X1437837Y1282201D1*
X1406337Y1321201D2*
X1406105Y1319701D1*
X1405734Y1318201D1*
X1405345Y1316701D1*
X1405082Y1315201D1*
X1404949Y1313701D1*
X1404938Y1312201D1*
X1405103Y1310701D1*
X1405452Y1309201D1*
X1405839Y1307701D1*
X1406152Y1306201D1*
X1406482Y1304701D1*
X1406910Y1303201D1*
X1407374Y1301701D1*
X1407842Y1300201D1*
X1408403Y1298701D1*
X1409097Y1297201D1*
X1409941Y1295701D1*
X1410893Y1294201D1*
X1411856Y1292701D1*
X1412899Y1291201D1*
X1414165Y1289701D1*
X1415770Y1288201D1*
X1417868Y1286701D1*
X1420564Y1285201D1*
X1423809Y1283701D1*
X1427337Y1282201D1*
X1415337Y1321201D2*
Y1319701D1*
Y1318201D1*
Y1316701D1*
Y1315201D1*
Y1313701D1*
X1415343Y1312201D1*
X1415396Y1310701D1*
X1415587Y1309201D1*
X1415952Y1307701D1*
X1416395Y1306201D1*
X1416901Y1304701D1*
X1417596Y1303201D1*
X1418468Y1301701D1*
X1419449Y1300201D1*
X1420754Y1298701D1*
X1422905Y1297201D1*
X1426634Y1295701D1*
X1432383Y1294201D1*
X1439337Y1292701D1*
X1427337Y1321201D2*
X1428837Y1319701D1*
X1448337D2*
Y1318201D1*
Y1316701D1*
Y1315201D1*
Y1313701D1*
Y1312201D1*
X1448331Y1310701D1*
X1448279Y1309201D1*
X1448082Y1307701D1*
X1447670Y1306201D1*
X1447088Y1304701D1*
X1446409Y1303201D1*
X1445635Y1301701D1*
X1444695Y1300201D1*
X1443442Y1298701D1*
X1441906Y1297201D1*
X1438198Y1295701D1*
X1432622Y1294201D1*
X1425837Y1292701D1*
X1388337Y1276201D2*
X1384196Y1274701D1*
X1380818Y1273201D1*
X1378211Y1271701D1*
X1376254Y1270201D1*
X1374746Y1268701D1*
X1373494Y1267201D1*
X1372461Y1265701D1*
X1371623Y1264201D1*
X1371001Y1262701D1*
X1370587Y1261201D1*
X1370216Y1259701D1*
X1369778Y1258201D1*
X1369362Y1256701D1*
X1369089Y1255201D1*
X1368951Y1253701D1*
X1368939Y1252201D1*
X1369103Y1250701D1*
X1369452Y1249201D1*
X1369839Y1247701D1*
X1370152Y1246201D1*
X1370487Y1244701D1*
X1370963Y1243201D1*
X1371571Y1241701D1*
X1372254Y1240201D1*
X1372967Y1238701D1*
X1373594Y1237201D1*
X1374079Y1235701D1*
X1373827Y1234201D1*
X1372854Y1232701D1*
X1371694Y1231201D1*
X1370570Y1229701D1*
X1369737Y1228201D1*
X1369170Y1226701D1*
X1369266Y1225201D1*
X1369697Y1223701D1*
X1370337Y1222201D1*
X1403337Y1276201D2*
X1407484Y1274701D1*
X1410916Y1273201D1*
X1413713Y1271701D1*
X1416035Y1270201D1*
X1417980Y1268701D1*
X1419685Y1267201D1*
X1421223Y1265701D1*
X1422561Y1264201D1*
X1423662Y1262701D1*
X1424586Y1261201D1*
X1425414Y1259701D1*
X1426193Y1258201D1*
X1426951Y1256701D1*
X1427651Y1255201D1*
X1428207Y1253701D1*
X1428544Y1252201D1*
X1428714Y1250701D1*
X1428789Y1249201D1*
X1428819Y1247701D1*
X1428831Y1246201D1*
X1428835Y1244701D1*
X1428837Y1243201D1*
X1428831Y1241701D1*
X1428779Y1240201D1*
X1428587Y1238701D1*
X1428222Y1237201D1*
X1427785Y1235701D1*
X1427326Y1234201D1*
X1426770Y1232701D1*
X1426072Y1231201D1*
X1425179Y1229701D1*
X1424063Y1228201D1*
X1422837Y1226701D1*
X1392837Y1265701D2*
X1388701Y1264201D1*
X1385127Y1262701D1*
X1382431Y1261201D1*
X1380599Y1259701D1*
X1379383Y1258201D1*
X1378606Y1256701D1*
X1378181Y1255201D1*
X1377979Y1253701D1*
X1377892Y1252201D1*
X1377863Y1250701D1*
X1377903Y1249201D1*
X1378095Y1247701D1*
X1378512Y1246201D1*
X1379139Y1244701D1*
X1379992Y1243201D1*
X1381035Y1241701D1*
X1383553Y1240201D1*
X1387646Y1238701D1*
X1392837Y1237201D1*
X1398837Y1265701D2*
X1402979Y1264201D1*
X1406606Y1262701D1*
X1409499Y1261201D1*
X1411749Y1259701D1*
X1413593Y1258201D1*
X1415188Y1256701D1*
X1416549Y1255201D1*
X1417652Y1253701D1*
X1418526Y1252201D1*
X1419163Y1250701D1*
X1419584Y1249201D1*
X1419951Y1247701D1*
X1420337Y1246201D1*
X1420677Y1244701D1*
X1420431Y1243201D1*
X1419977Y1241701D1*
X1418576Y1240201D1*
X1416438Y1238701D1*
X1413837Y1237201D1*
X1394337Y1238701D2*
X1392837Y1237201D1*
X1413837Y1238701D2*
X1415337Y1237201D1*
X1391337Y1228201D2*
X1386899Y1226701D1*
X1382632Y1225201D1*
X1378645Y1223701D1*
X1374837Y1222201D1*
X1413837Y1228201D2*
X1415337Y1226701D1*
X1376337Y1216201D2*
X1375075Y1214701D1*
X1374000Y1213201D1*
X1373085Y1211701D1*
X1372266Y1210201D1*
X1371539Y1208701D1*
X1370968Y1207201D1*
X1370574Y1205701D1*
X1370212Y1204201D1*
X1369777Y1202701D1*
X1369362Y1201201D1*
X1369088Y1199701D1*
X1368945Y1198201D1*
X1368880Y1196701D1*
X1368853Y1195201D1*
X1368843Y1193701D1*
X1368839Y1192201D1*
X1368844Y1190701D1*
X1368896Y1189201D1*
X1369087Y1187701D1*
X1369452Y1186201D1*
X1369889Y1184701D1*
X1370342Y1183201D1*
X1370846Y1181701D1*
X1371353Y1180201D1*
X1371891Y1178701D1*
X1372649Y1177201D1*
X1373716Y1175701D1*
X1375056Y1174201D1*
X1376692Y1172701D1*
X1378666Y1171201D1*
X1380837Y1169701D1*
Y1216201D2*
X1382222Y1214701D1*
X1383248Y1213201D1*
X1383498Y1211701D1*
X1383555Y1210201D1*
X1382964Y1208701D1*
X1382169Y1207201D1*
X1381336Y1205701D1*
X1380577Y1204201D1*
X1379991Y1202701D1*
X1379640Y1201201D1*
X1379464Y1199701D1*
X1379387Y1198201D1*
X1379356Y1196701D1*
X1379344Y1195201D1*
X1379339Y1193701D1*
X1379338Y1192201D1*
X1379343Y1190701D1*
X1379396Y1189201D1*
X1379593Y1187701D1*
X1380034Y1186201D1*
X1380668Y1184701D1*
X1382217Y1183201D1*
X1385729Y1181701D1*
X1389837Y1180201D1*
X1406337Y1211701D2*
X1404562Y1210201D1*
X1403040Y1208701D1*
X1401841Y1207201D1*
X1400875Y1205701D1*
X1400083Y1204201D1*
X1399484Y1202701D1*
X1399080Y1201201D1*
X1398714Y1199701D1*
X1398278Y1198201D1*
X1397862Y1196701D1*
X1397583Y1195201D1*
X1397387Y1193701D1*
X1397124Y1192201D1*
X1396686Y1190701D1*
X1396094Y1189201D1*
X1395405Y1187701D1*
X1394548Y1186201D1*
X1393482Y1184701D1*
X1390533Y1183201D1*
X1386138Y1181701D1*
X1380837Y1180201D1*
X1415337Y1211701D2*
X1418222Y1210201D1*
X1420578Y1208701D1*
X1422461Y1207201D1*
X1423957Y1205701D1*
X1425118Y1204201D1*
X1426019Y1202701D1*
X1426712Y1201201D1*
X1427280Y1199701D1*
X1427874Y1198201D1*
X1428530Y1196701D1*
X1429183Y1195201D1*
X1429724Y1193701D1*
X1430107Y1192201D1*
X1430465Y1190701D1*
X1430904Y1189201D1*
X1431372Y1187701D1*
X1431842Y1186201D1*
X1432397Y1184701D1*
X1433038Y1183201D1*
X1433686Y1181701D1*
X1434219Y1180201D1*
X1434548Y1178701D1*
X1434715Y1177201D1*
X1434784Y1175701D1*
X1434726Y1174201D1*
X1434512Y1172701D1*
X1433059Y1171201D1*
X1429076Y1169701D1*
X1424337Y1168201D1*
X1409337Y1201201D2*
X1409280Y1199701D1*
X1409088Y1198201D1*
X1408728Y1196701D1*
X1408338Y1195201D1*
X1408023Y1193701D1*
X1407693Y1192201D1*
X1407264Y1190701D1*
X1406801Y1189201D1*
X1406338Y1187701D1*
X1405830Y1186201D1*
X1405328Y1184701D1*
X1404842Y1183201D1*
X1404275Y1181701D1*
X1403573Y1180201D1*
X1402675Y1178701D1*
X1401526Y1177201D1*
X1400145Y1175701D1*
X1398474Y1174201D1*
X1396401Y1172701D1*
X1393954Y1171201D1*
X1391337Y1169701D1*
X1412337Y1201201D2*
X1413831Y1199701D1*
X1415279Y1198201D1*
X1416582Y1196701D1*
X1417670Y1195201D1*
X1418588Y1193701D1*
X1419409Y1192201D1*
X1420141Y1190701D1*
X1420760Y1189201D1*
X1421292Y1187701D1*
X1421822Y1186201D1*
X1422271Y1184701D1*
X1422582Y1183201D1*
X1422348Y1181701D1*
X1421078Y1180201D1*
X1419381Y1178701D1*
X1417729Y1177201D1*
X1416353Y1175701D1*
X1415764Y1174201D1*
X1415689Y1172701D1*
X1416294Y1171201D1*
X1417232Y1169701D1*
X1418337Y1168201D1*
X1376337Y1159201D2*
X1375075Y1157701D1*
X1374000Y1156201D1*
X1373085Y1154701D1*
X1372266Y1153201D1*
X1371539Y1151701D1*
X1370968Y1150201D1*
X1370574Y1148701D1*
X1370212Y1147201D1*
X1369777Y1145701D1*
X1369362Y1144201D1*
X1369088Y1142701D1*
X1368945Y1141201D1*
X1368880Y1139701D1*
X1368853Y1138201D1*
X1368843Y1136701D1*
X1368839Y1135201D1*
X1368844Y1133701D1*
X1368896Y1132201D1*
X1369087Y1130701D1*
X1369452Y1129201D1*
X1369889Y1127701D1*
X1370342Y1126201D1*
X1370846Y1124701D1*
X1371353Y1123201D1*
X1371891Y1121701D1*
X1372649Y1120201D1*
X1373716Y1118701D1*
X1375056Y1117201D1*
X1376692Y1115701D1*
X1378666Y1114201D1*
X1380837Y1112701D1*
Y1159201D2*
X1382222Y1157701D1*
X1383248Y1156201D1*
X1383498Y1154701D1*
X1383555Y1153201D1*
X1382964Y1151701D1*
X1382169Y1150201D1*
X1381336Y1148701D1*
X1380577Y1147201D1*
X1379991Y1145701D1*
X1379640Y1144201D1*
X1379464Y1142701D1*
X1379387Y1141201D1*
X1379356Y1139701D1*
X1379344Y1138201D1*
X1379339Y1136701D1*
X1379338Y1135201D1*
X1379343Y1133701D1*
X1379396Y1132201D1*
X1379593Y1130701D1*
X1380034Y1129201D1*
X1380668Y1127701D1*
X1382217Y1126201D1*
X1385729Y1124701D1*
X1389837Y1123201D1*
X1406337Y1154701D2*
X1404562Y1153201D1*
X1403040Y1151701D1*
X1401841Y1150201D1*
X1400875Y1148701D1*
X1400083Y1147201D1*
X1399484Y1145701D1*
X1399080Y1144201D1*
X1398714Y1142701D1*
X1398278Y1141201D1*
X1397862Y1139701D1*
X1397583Y1138201D1*
X1397387Y1136701D1*
X1397124Y1135201D1*
X1396686Y1133701D1*
X1396094Y1132201D1*
X1395405Y1130701D1*
X1394548Y1129201D1*
X1393482Y1127701D1*
X1390533Y1126201D1*
X1386138Y1124701D1*
X1380837Y1123201D1*
X1415337Y1154701D2*
X1418222Y1153201D1*
X1420578Y1151701D1*
X1422461Y1150201D1*
X1423957Y1148701D1*
X1425118Y1147201D1*
X1426019Y1145701D1*
X1426712Y1144201D1*
X1427280Y1142701D1*
X1427874Y1141201D1*
X1428530Y1139701D1*
X1429183Y1138201D1*
X1429724Y1136701D1*
X1430107Y1135201D1*
X1430465Y1133701D1*
X1430904Y1132201D1*
X1431372Y1130701D1*
X1431842Y1129201D1*
X1432397Y1127701D1*
X1433038Y1126201D1*
X1433686Y1124701D1*
X1434219Y1123201D1*
X1434548Y1121701D1*
X1434715Y1120201D1*
X1434784Y1118701D1*
X1434726Y1117201D1*
X1434512Y1115701D1*
X1433059Y1114201D1*
X1429076Y1112701D1*
X1424337Y1111201D1*
X1409337Y1144201D2*
X1409280Y1142701D1*
X1409088Y1141201D1*
X1408728Y1139701D1*
X1408338Y1138201D1*
X1408023Y1136701D1*
X1407693Y1135201D1*
X1407264Y1133701D1*
X1406801Y1132201D1*
X1406338Y1130701D1*
X1405830Y1129201D1*
X1405328Y1127701D1*
X1404842Y1126201D1*
X1404275Y1124701D1*
X1403573Y1123201D1*
X1402675Y1121701D1*
X1401526Y1120201D1*
X1400145Y1118701D1*
X1398474Y1117201D1*
X1396401Y1115701D1*
X1393954Y1114201D1*
X1391337Y1112701D1*
X1412337Y1144201D2*
X1413831Y1142701D1*
X1415279Y1141201D1*
X1416582Y1139701D1*
X1417670Y1138201D1*
X1418588Y1136701D1*
X1419409Y1135201D1*
X1420141Y1133701D1*
X1420760Y1132201D1*
X1421292Y1130701D1*
X1421822Y1129201D1*
X1422271Y1127701D1*
X1422582Y1126201D1*
X1422348Y1124701D1*
X1421078Y1123201D1*
X1419381Y1121701D1*
X1417729Y1120201D1*
X1416353Y1118701D1*
X1415764Y1117201D1*
X1415689Y1115701D1*
X1416294Y1114201D1*
X1417232Y1112701D1*
X1418337Y1111201D1*
X1416837Y1100701D2*
X1406939Y1099201D1*
X1397801Y1097701D1*
X1389808Y1096201D1*
X1383156Y1094701D1*
X1377932Y1093201D1*
X1374076Y1091701D1*
X1371317Y1090201D1*
X1369206Y1088701D1*
X1367337Y1087201D1*
X1368330Y1085701D1*
X1369448Y1084201D1*
X1370966Y1082701D1*
X1373126Y1081201D1*
X1375971Y1079701D1*
X1379327Y1078201D1*
X1383029Y1076701D1*
X1386919Y1075201D1*
X1390803Y1073701D1*
X1394589Y1072201D1*
X1398242Y1070701D1*
X1401829Y1069201D1*
X1405527Y1067701D1*
X1409337Y1066201D1*
X1400066Y1064701D1*
X1391765Y1063201D1*
X1384828Y1061701D1*
X1379289Y1060201D1*
X1375066Y1058701D1*
X1372098Y1057201D1*
X1370159Y1055701D1*
X1368910Y1054201D1*
X1368001Y1052701D1*
X1367799Y1051201D1*
X1368238Y1049701D1*
X1369514Y1048201D1*
X1371253Y1046701D1*
X1373529Y1045201D1*
X1376465Y1043701D1*
X1380080Y1042201D1*
X1384207Y1040701D1*
X1388764Y1039201D1*
X1393745Y1037701D1*
X1399020Y1036201D1*
X1404405Y1034701D1*
X1409908Y1033201D1*
X1415579Y1031701D1*
X1421337Y1030201D1*
X1427337Y1100701D2*
X1428030Y1099201D1*
X1428455Y1097701D1*
X1428596Y1096201D1*
X1428523Y1094701D1*
X1427286Y1093201D1*
X1422570Y1091701D1*
X1415109Y1090201D1*
X1405405Y1088701D1*
X1394739Y1087201D1*
X1383837Y1085701D1*
X1387645Y1084201D1*
X1391714Y1082701D1*
X1395996Y1081201D1*
X1400399Y1079701D1*
X1404860Y1078201D1*
X1409345Y1076701D1*
X1413828Y1075201D1*
X1418203Y1073701D1*
X1422145Y1072201D1*
X1425177Y1070701D1*
X1427427Y1069201D1*
X1428157Y1067701D1*
X1428618Y1066201D1*
X1428566Y1064701D1*
X1427963Y1063201D1*
X1426378Y1061701D1*
X1422639Y1060201D1*
X1417370Y1058701D1*
X1410720Y1057201D1*
X1403215Y1055701D1*
X1395317Y1054201D1*
X1387317Y1052701D1*
X1379337Y1051201D1*
X1385343Y1049701D1*
X1391396Y1048201D1*
X1397587Y1046701D1*
X1403940Y1045201D1*
X1410255Y1043701D1*
X1416144Y1042201D1*
X1421115Y1040701D1*
X1424718Y1039201D1*
X1427302Y1037701D1*
X1428249Y1036201D1*
X1428506Y1034701D1*
X1428567Y1033201D1*
X1428025Y1031701D1*
X1427337Y1030201D1*
X1389837Y1021201D2*
X1386208Y1019701D1*
X1383028Y1018201D1*
X1380419Y1016701D1*
X1378316Y1015201D1*
X1376538Y1013701D1*
X1374970Y1012201D1*
X1373620Y1010701D1*
X1372520Y1009201D1*
X1371642Y1007701D1*
X1370958Y1006201D1*
X1370399Y1004701D1*
X1369858Y1003201D1*
X1369394Y1001701D1*
X1369101Y1000201D1*
X1368950Y998701D1*
X1368882Y997201D1*
X1368860Y995701D1*
X1368902Y994201D1*
X1369095Y992701D1*
X1369506Y991201D1*
X1370087Y989701D1*
X1370760Y988201D1*
X1371481Y986701D1*
X1372224Y985201D1*
X1373029Y983701D1*
X1374027Y982201D1*
X1375386Y980701D1*
X1377134Y979201D1*
X1379205Y977701D1*
X1381660Y976201D1*
X1384743Y974701D1*
X1388574Y973201D1*
X1392837Y971701D1*
X1404837Y1021201D2*
X1408805Y1019701D1*
X1412252Y1018201D1*
X1415116Y1016701D1*
X1417488Y1015201D1*
X1419460Y1013701D1*
X1421177Y1012201D1*
X1422720Y1010701D1*
X1424060Y1009201D1*
X1425162Y1007701D1*
X1426086Y1006201D1*
X1426908Y1004701D1*
X1427635Y1003201D1*
X1428201Y1001701D1*
X1428542Y1000201D1*
X1428713Y998701D1*
X1428789Y997201D1*
X1428819Y995701D1*
X1428831Y994201D1*
X1428835Y992701D1*
X1428831Y991201D1*
X1428778Y989701D1*
X1428582Y988201D1*
X1428170Y986701D1*
X1427588Y985201D1*
X1426909Y983701D1*
X1426129Y982201D1*
X1425142Y980701D1*
X1423780Y979201D1*
X1421969Y977701D1*
X1419604Y976201D1*
X1416433Y974701D1*
X1412367Y973201D1*
X1407837Y971701D1*
X1394337Y1010701D2*
X1390427Y1009201D1*
X1387172Y1007701D1*
X1384674Y1006201D1*
X1382745Y1004701D1*
X1381284Y1003201D1*
X1380146Y1001701D1*
X1379730Y1000201D1*
X1379505Y998701D1*
X1379409Y997201D1*
X1379420Y995701D1*
X1379601Y994201D1*
X1380014Y992701D1*
X1380652Y991201D1*
X1381580Y989701D1*
X1382963Y988201D1*
X1384890Y986701D1*
X1387303Y985201D1*
X1390014Y983701D1*
X1392837Y982201D1*
X1397337Y1010701D2*
X1402685Y1009201D1*
X1407188Y1007701D1*
X1410584Y1006201D1*
X1413071Y1004701D1*
X1414968Y1003201D1*
X1416414Y1001701D1*
X1417431Y1000201D1*
X1418156Y998701D1*
X1418764Y997201D1*
X1419204Y995701D1*
X1419444Y994201D1*
X1419082Y992701D1*
X1418493Y991201D1*
X1417632Y989701D1*
X1416392Y988201D1*
X1414578Y986701D1*
X1411951Y985201D1*
X1408566Y983701D1*
X1404837Y982201D1*
X1370337Y956701D2*
X1369645Y955201D1*
X1369214Y953701D1*
X1369002Y952201D1*
X1368962Y950701D1*
X1369155Y949201D1*
X1369653Y947701D1*
X1370337Y946201D1*
X1427337Y956701D2*
X1428030Y955201D1*
X1428455Y953701D1*
X1428614Y952201D1*
X1428594Y950701D1*
X1427995Y949201D1*
X1426382Y947701D1*
X1424075Y946201D1*
X1421337Y944701D1*
X1422324Y943201D1*
X1423372Y941701D1*
X1424535Y940201D1*
X1425691Y938701D1*
X1426707Y937201D1*
X1427551Y935701D1*
X1428223Y934201D1*
X1428778Y932701D1*
X1429317Y931201D1*
X1429780Y929701D1*
X1430074Y928201D1*
X1430225Y926701D1*
X1430293Y925201D1*
X1430315Y923701D1*
X1430267Y922201D1*
X1430015Y920701D1*
X1429531Y919201D1*
X1428172Y917701D1*
X1426382Y916201D1*
X1424337Y914701D1*
X1403337Y946201D2*
X1406274Y944701D1*
X1409023Y943201D1*
X1411414Y941701D1*
X1413415Y940201D1*
X1415107Y938701D1*
X1416515Y937201D1*
X1417640Y935701D1*
X1418527Y934201D1*
X1419215Y932701D1*
X1419776Y931201D1*
X1420330Y929701D1*
X1420859Y928201D1*
X1421337Y926701D1*
X1415228Y925201D1*
X1411149Y923701D1*
X1408367Y922201D1*
X1407371Y920701D1*
X1407289Y919201D1*
X1408047Y917701D1*
X1409284Y916201D1*
X1410837Y914701D1*
X1389837Y905701D2*
X1386434Y904201D1*
X1383579Y902701D1*
X1381220Y901201D1*
X1379212Y899701D1*
X1377548Y898201D1*
X1376167Y896701D1*
X1374965Y895201D1*
X1373945Y893701D1*
X1373061Y892201D1*
X1372256Y890701D1*
X1371536Y889201D1*
X1370972Y887701D1*
X1370632Y886201D1*
X1370461Y884701D1*
X1370386Y883201D1*
X1370355Y881701D1*
X1370344Y880201D1*
X1370339Y878701D1*
X1370338Y877201D1*
X1370343Y875701D1*
X1370396Y874201D1*
X1370587Y872701D1*
X1370952Y871201D1*
X1371389Y869701D1*
X1371848Y868201D1*
X1372404Y866701D1*
X1373088Y865201D1*
X1373912Y863701D1*
X1374837Y862201D1*
X1373400Y860701D1*
X1372151Y859201D1*
X1371266Y857701D1*
X1370675Y856201D1*
X1370658Y854701D1*
X1371280Y853201D1*
X1372227Y851701D1*
X1373337Y850201D1*
X1404837Y905701D2*
X1409159Y904201D1*
X1412770Y902701D1*
X1415597Y901201D1*
X1417796Y899701D1*
X1419619Y898201D1*
X1421249Y896701D1*
X1422749Y895201D1*
X1424071Y893701D1*
X1425166Y892201D1*
X1426087Y890701D1*
X1426908Y889201D1*
X1427635Y887701D1*
X1428201Y886201D1*
X1428542Y884701D1*
X1428713Y883201D1*
X1428789Y881701D1*
X1428819Y880201D1*
X1428831Y878701D1*
X1428835Y877201D1*
X1428837Y875701D1*
X1428831Y874201D1*
X1428779Y872701D1*
X1428582Y871201D1*
X1428170Y869701D1*
X1427588Y868201D1*
X1426910Y866701D1*
X1426150Y865201D1*
X1425287Y863701D1*
X1424337Y862201D1*
X1438058Y860701D1*
X1448452Y859201D1*
X1454754Y857701D1*
X1458669Y856201D1*
X1459722Y854701D1*
X1459939Y853201D1*
X1459472Y851701D1*
X1458837Y850201D1*
X1394337Y895201D2*
X1391400Y893701D1*
X1388651Y892201D1*
X1386266Y890701D1*
X1384313Y889201D1*
X1382765Y887701D1*
X1381577Y886201D1*
X1380669Y884701D1*
X1380024Y883201D1*
X1379651Y881701D1*
X1379468Y880201D1*
X1379388Y878701D1*
X1379362Y877201D1*
X1379402Y875701D1*
X1379595Y874201D1*
X1380011Y872701D1*
X1380645Y871201D1*
X1381510Y869701D1*
X1382584Y868201D1*
X1383653Y866701D1*
X1384470Y865201D1*
X1384978Y863701D1*
X1385337Y862201D1*
X1401837Y895201D2*
X1405979Y893701D1*
X1409606Y892201D1*
X1412493Y890701D1*
X1414690Y889201D1*
X1416343Y887701D1*
X1417573Y886201D1*
X1418497Y884701D1*
X1419147Y883201D1*
X1419522Y881701D1*
X1419706Y880201D1*
X1419786Y878701D1*
X1419819Y877201D1*
X1419825Y875701D1*
X1419776Y874201D1*
X1419581Y872701D1*
X1419164Y871201D1*
X1418524Y869701D1*
X1417594Y868201D1*
X1416212Y866701D1*
X1414290Y865201D1*
X1411913Y863701D1*
X1409337Y862201D1*
X1385337Y851701D2*
X1383837Y850201D1*
X1430337Y851701D2*
X1431837Y850201D1*
X1373337Y835201D2*
X1372132Y833701D1*
X1371261Y832201D1*
X1370675Y830701D1*
X1370658Y829201D1*
X1371280Y827701D1*
X1372227Y826201D1*
X1373337Y824701D1*
X1415337Y835201D2*
Y833701D1*
X1454337D2*
X1455542Y832201D1*
X1456420Y830701D1*
X1456922Y829201D1*
X1457166Y827701D1*
X1457271Y826201D1*
X1457313Y824701D1*
X1457329Y823201D1*
X1457334Y821701D1*
X1457336Y820201D1*
X1457337Y818701D1*
Y817201D1*
Y815701D1*
Y814201D1*
Y812701D1*
X1457331Y811201D1*
X1457279Y809701D1*
X1457088Y808201D1*
X1456722Y806701D1*
X1456285Y805201D1*
X1455826Y803701D1*
X1455270Y802201D1*
X1454577Y800701D1*
X1453733Y799201D1*
X1452782Y797701D1*
X1451818Y796201D1*
X1450781Y794701D1*
X1449568Y793201D1*
X1448155Y791701D1*
X1446416Y790201D1*
X1444108Y788701D1*
X1441147Y787201D1*
X1437837Y785701D1*
X1406337Y824701D2*
X1406105Y823201D1*
X1405734Y821701D1*
X1405345Y820201D1*
X1405082Y818701D1*
X1404949Y817201D1*
X1404938Y815701D1*
X1405103Y814201D1*
X1405452Y812701D1*
X1405839Y811201D1*
X1406152Y809701D1*
X1406482Y808201D1*
X1406910Y806701D1*
X1407374Y805201D1*
X1407842Y803701D1*
X1408403Y802201D1*
X1409097Y800701D1*
X1409941Y799201D1*
X1410893Y797701D1*
X1411856Y796201D1*
X1412899Y794701D1*
X1414165Y793201D1*
X1415770Y791701D1*
X1417868Y790201D1*
X1420564Y788701D1*
X1423809Y787201D1*
X1427337Y785701D1*
X1415337Y824701D2*
Y823201D1*
Y821701D1*
Y820201D1*
Y818701D1*
Y817201D1*
X1415343Y815701D1*
X1415396Y814201D1*
X1415587Y812701D1*
X1415952Y811201D1*
X1416395Y809701D1*
X1416901Y808201D1*
X1417596Y806701D1*
X1418468Y805201D1*
X1419449Y803701D1*
X1420754Y802201D1*
X1422905Y800701D1*
X1426634Y799201D1*
X1432383Y797701D1*
X1439337Y796201D1*
X1427337Y824701D2*
X1428837Y823201D1*
X1448337D2*
Y821701D1*
Y820201D1*
Y818701D1*
Y817201D1*
Y815701D1*
X1448331Y814201D1*
X1448279Y812701D1*
X1448082Y811201D1*
X1447670Y809701D1*
X1447088Y808201D1*
X1446409Y806701D1*
X1445635Y805201D1*
X1444695Y803701D1*
X1443442Y802201D1*
X1441906Y800701D1*
X1438198Y799201D1*
X1432622Y797701D1*
X1425837Y796201D1*
X1391337Y776701D2*
X1384478Y775201D1*
X1379521Y773701D1*
X1376264Y772201D1*
X1374137Y770701D1*
X1372715Y769201D1*
X1371718Y767701D1*
X1371041Y766201D1*
X1370651Y764701D1*
X1370411Y763201D1*
X1370139Y761701D1*
X1369747Y760201D1*
X1369350Y758701D1*
X1369090Y757201D1*
X1369002Y755701D1*
X1369129Y754201D1*
X1369462Y752701D1*
X1369837Y751201D1*
X1370100Y749701D1*
X1370291Y748201D1*
X1370545Y746701D1*
X1370931Y745201D1*
X1371314Y743701D1*
X1371473Y742201D1*
X1371398Y740701D1*
X1370562Y739201D1*
X1369595Y737701D1*
X1368721Y736201D1*
X1367979Y734701D1*
X1367794Y733201D1*
X1368345Y731701D1*
X1369252Y730201D1*
X1370337Y728701D1*
X1419837Y776701D2*
X1423812Y775201D1*
X1426877Y773701D1*
X1428084Y772201D1*
X1428486Y770701D1*
X1428635Y769201D1*
X1428490Y767701D1*
X1428012Y766201D1*
X1427337Y764701D1*
X1392837Y766201D2*
X1388011Y764701D1*
X1384449Y763201D1*
X1381911Y761701D1*
X1380830Y760201D1*
X1380087Y758701D1*
X1379674Y757201D1*
X1379476Y755701D1*
X1379396Y754201D1*
X1379415Y752701D1*
X1379594Y751201D1*
X1379949Y749701D1*
X1380332Y748201D1*
X1380599Y746701D1*
X1380796Y745201D1*
X1381109Y743701D1*
X1381739Y742201D1*
X1382709Y740701D1*
X1383837Y739201D1*
X1415337Y766201D2*
X1416837Y764701D1*
X1427337Y739201D2*
X1428030Y737701D1*
X1428460Y736201D1*
X1428673Y734701D1*
X1428712Y733201D1*
X1428520Y731701D1*
X1428022Y730201D1*
X1427337Y728701D1*
X1376337Y715201D2*
X1373690Y713701D1*
X1371765Y712201D1*
X1370317Y710701D1*
X1369679Y709201D1*
X1369812Y707701D1*
X1370262Y706201D1*
X1370976Y704701D1*
X1371837Y703201D1*
X1391337Y715201D2*
Y713701D1*
X1415337Y715201D2*
Y713701D1*
X1425837Y715201D2*
X1428659Y713701D1*
X1430770Y712201D1*
X1432335Y710701D1*
X1432923Y709201D1*
X1432991Y707701D1*
X1432296Y706201D1*
X1428872Y704701D1*
X1422934Y703201D1*
X1415337Y701701D1*
X1417530Y700201D1*
X1419460Y698701D1*
X1421178Y697201D1*
X1422769Y695701D1*
X1424256Y694201D1*
X1425574Y692701D1*
X1426661Y691201D1*
X1427529Y689701D1*
X1428159Y688201D1*
X1428526Y686701D1*
X1428707Y685201D1*
X1428781Y683701D1*
X1428760Y682201D1*
X1428575Y680701D1*
X1428156Y679201D1*
X1427470Y677701D1*
X1426408Y676201D1*
X1424905Y674701D1*
X1423148Y673201D1*
X1421337Y671701D1*
X1423011Y670201D1*
X1424443Y668701D1*
X1425679Y667201D1*
X1426711Y665701D1*
X1427550Y664201D1*
X1428167Y662701D1*
X1428529Y661201D1*
X1428708Y659701D1*
X1428787Y658201D1*
X1428819Y656701D1*
X1428831Y655201D1*
X1428829Y653701D1*
X1428772Y652201D1*
X1428523Y650701D1*
X1427908Y649201D1*
X1426844Y647701D1*
X1425199Y646201D1*
X1422461Y644701D1*
X1417793Y643201D1*
X1410631Y641701D1*
X1401264Y640201D1*
X1390554Y638701D1*
X1379337Y637201D1*
Y704701D2*
X1377837Y703201D1*
X1382337Y704701D2*
X1391300Y703201D1*
X1398436Y701701D1*
X1403338Y700201D1*
X1406563Y698701D1*
X1408834Y697201D1*
X1410650Y695701D1*
X1412270Y694201D1*
X1413814Y692701D1*
X1415330Y691201D1*
X1416835Y689701D1*
X1418337Y688201D1*
X1419837Y686701D1*
X1416837Y685201D1*
X1413837Y683701D1*
X1397337D2*
X1385233Y682201D1*
X1376073Y680701D1*
X1369538Y679201D1*
X1367230Y677701D1*
X1366327Y676201D1*
X1366117Y674701D1*
X1366090Y673201D1*
X1366642Y671701D1*
X1367337Y670201D1*
X1407837Y673201D2*
X1394337Y671701D1*
X1380837Y670201D1*
X1412337Y673201D2*
X1412632Y671701D1*
X1413249Y670201D1*
X1414194Y668701D1*
X1415253Y667201D1*
X1416236Y665701D1*
X1417117Y664201D1*
X1417967Y662701D1*
X1418868Y661201D1*
X1419837Y659701D1*
X1417673Y658201D1*
X1414554Y656701D1*
X1409891Y655201D1*
X1403434Y653701D1*
X1395487Y652201D1*
X1387098Y650701D1*
X1379709Y649201D1*
X1374293Y647701D1*
X1370308Y646201D1*
X1368579Y644701D1*
X1367832Y643201D1*
X1367710Y641701D1*
X1368302Y640201D1*
X1369235Y638701D1*
X1370337Y637201D1*
X1412337Y625201D2*
Y623701D1*
X1427337Y625201D2*
X1429467Y623701D1*
X1431147Y622201D1*
X1432445Y620701D1*
X1432843Y619201D1*
X1433004Y617701D1*
X1432417Y616201D1*
X1430298Y614701D1*
X1426960Y613201D1*
X1422837Y611701D1*
X1424100Y610201D1*
X1425175Y608701D1*
X1426090Y607201D1*
X1426909Y605701D1*
X1427635Y604201D1*
X1428201Y602701D1*
X1428542Y601201D1*
X1428713Y599701D1*
X1428789Y598201D1*
X1428819Y596701D1*
X1428831Y595201D1*
X1428829Y593701D1*
X1428778Y592201D1*
X1428581Y590701D1*
X1428164Y589201D1*
X1427529Y587701D1*
X1426659Y586201D1*
X1425520Y584701D1*
X1424143Y583201D1*
X1422455Y581701D1*
X1420207Y580201D1*
X1417031Y578701D1*
X1412754Y577201D1*
X1407837Y575701D1*
X1341837Y623701D2*
X1341145Y622201D1*
X1340714Y620701D1*
X1340502Y619201D1*
X1340462Y617701D1*
X1340655Y616201D1*
X1341153Y614701D1*
X1341837Y613201D1*
X1371837D2*
X1371780Y611701D1*
X1371588Y610201D1*
X1371228Y608701D1*
X1370844Y607201D1*
X1370582Y605701D1*
X1370443Y604201D1*
X1370379Y602701D1*
X1370353Y601201D1*
X1370343Y599701D1*
X1370345Y598201D1*
X1370397Y596701D1*
X1370587Y595201D1*
X1370952Y593701D1*
X1371395Y592201D1*
X1371901Y590701D1*
X1372596Y589201D1*
X1373462Y587701D1*
X1374390Y586201D1*
X1375463Y584701D1*
X1376860Y583201D1*
X1378636Y581701D1*
X1380816Y580201D1*
X1383617Y578701D1*
X1387238Y577201D1*
X1391337Y575701D1*
X1382337Y613201D2*
X1382105Y611701D1*
X1381734Y610201D1*
X1381345Y608701D1*
X1381082Y607201D1*
X1380943Y605701D1*
X1380879Y604201D1*
X1380853Y602701D1*
X1380843Y601201D1*
X1380845Y599701D1*
X1380902Y598201D1*
X1381152Y596701D1*
X1381761Y595201D1*
X1382766Y593701D1*
X1384203Y592201D1*
X1386045Y590701D1*
X1391770Y589201D1*
X1400940Y587701D1*
X1412337Y586201D1*
X1410837Y613201D2*
X1412280Y611701D1*
X1413588Y610201D1*
X1414722Y608701D1*
X1415779Y607201D1*
X1416774Y605701D1*
X1417578Y604201D1*
X1418212Y602701D1*
X1418790Y601201D1*
X1419264Y599701D1*
X1419512Y598201D1*
X1419468Y596701D1*
X1419113Y595201D1*
X1418443Y593701D1*
X1417522Y592201D1*
X1414672Y590701D1*
X1409151Y589201D1*
X1399876Y587701D1*
X1388337Y586201D1*
X974951Y2104424D2*
D57*
Y2066177D1*
X972574Y2058992D1*
X970143Y2056616D1*
X965389Y2054184D1*
X960581D1*
X955828Y2056616D1*
X953451Y2058992D1*
X951019Y2066177D1*
Y2070931D1*
X992822Y2092430D2*
Y2094807D1*
X995199Y2099615D1*
X997575Y2101992D1*
X1002384Y2104369D1*
X1011945D1*
X1016699Y2101992D1*
X1019075Y2099615D1*
X1021507Y2094807D1*
Y2090054D1*
X1019075Y2085245D1*
X1014322Y2078116D1*
X990390Y2054184D1*
X1023884D1*
X570660Y2775738D2*
Y2797238D1*
X568228Y2804423D1*
X565852Y2806855D1*
X561099Y2809231D1*
X556290D1*
X551537Y2806855D1*
X549105Y2804423D1*
X546728Y2797238D1*
Y2775738D1*
X596968D1*
X570660Y2792485D2*
X596968Y2809231D1*
X556345Y2824670D2*
X553913Y2829479D1*
X546784Y2836664D1*
X596968D1*
X470661Y2764988D2*
Y2786488D1*
X468230Y2793673D1*
X465853Y2796105D1*
X461100Y2798481D1*
X456291D1*
X451538Y2796105D1*
X449106Y2793673D1*
X446730Y2786488D1*
Y2764988D1*
X496970D1*
X470661Y2781735D2*
X496970Y2798481D1*
X458723Y2816352D2*
X456347D1*
X451538Y2818729D1*
X449162Y2821106D1*
X446785Y2825914D1*
Y2835476D1*
X449162Y2840229D1*
X451538Y2842605D1*
X456347Y2845037D1*
X461100D1*
X465908Y2842605D1*
X473038Y2837852D1*
X496970Y2813920D1*
Y2847414D1*
X370660Y2764988D2*
Y2786488D1*
X368228Y2793673D1*
X365852Y2796105D1*
X361099Y2798481D1*
X356290D1*
X351537Y2796105D1*
X349105Y2793673D1*
X346728Y2786488D1*
Y2764988D1*
X396968D1*
X370660Y2781735D2*
X396968Y2798481D1*
X346784Y2818729D2*
Y2844982D1*
X365907Y2830667D1*
Y2837852D1*
X368284Y2842605D1*
X370660Y2844982D1*
X377845Y2847414D1*
X382598D1*
X389783Y2844982D1*
X394592Y2840229D1*
X396968Y2833044D1*
Y2825859D1*
X394592Y2818729D1*
X392160Y2816352D1*
X387407Y2813920D1*
X733160Y1176300D2*
Y1197799D1*
X730728Y1204985D1*
X728352Y1207416D1*
X723599Y1209793D1*
X718790D1*
X714037Y1207416D1*
X711605Y1204985D1*
X709228Y1197800D1*
Y1176300D1*
X759468D1*
X733160Y1193046D2*
X759468Y1209793D1*
Y1249164D2*
X709284D1*
X742722Y1225232D1*
Y1261102D1*
X876911Y1346237D2*
Y1367737D1*
X874479Y1374922D1*
X872102Y1377354D1*
X867349Y1379731D1*
X862541D1*
X857788Y1377354D1*
X855356Y1374922D1*
X852979Y1367737D1*
Y1346237D1*
X903219D1*
X876911Y1362984D2*
X903219Y1379731D1*
X853034Y1423855D2*
Y1399978D1*
X874534Y1397602D1*
X872158Y1399978D1*
X869726Y1407163D1*
Y1414293D1*
X872158Y1421478D1*
X876911Y1426287D1*
X884096Y1428663D1*
X888849D1*
X896034Y1426287D1*
X900842Y1421478D1*
X903219Y1414293D1*
Y1407163D1*
X900842Y1399978D1*
X898411Y1397602D1*
X893657Y1395170D1*
X999338Y3264891D2*
X1020838D1*
X1028023Y3267323D1*
X1030455Y3269700D1*
X1032831Y3274453D1*
Y3279261D1*
X1030455Y3284014D1*
X1028023Y3286446D1*
X1020838Y3288823D1*
X999338D1*
Y3238583D1*
X1016084Y3264891D2*
X1032831Y3238583D1*
X1079332Y3288823D2*
X1048270D1*
Y3238583D1*
X1079332D1*
X1048270Y3264891D2*
X1067394D1*
X1094771Y3279206D2*
X1099580Y3281638D1*
X1106765Y3288768D1*
Y3238583D1*
X499226Y3284133D2*
X520725D1*
X527911Y3286565D1*
X530342Y3288941D1*
X532719Y3293694D1*
Y3298503D1*
X530342Y3303256D1*
X527911Y3305688D1*
X520725Y3308064D1*
X499226D1*
Y3257824D1*
X515972Y3284133D2*
X532719Y3257824D1*
X584028Y3296126D2*
X581652Y3300879D1*
X576843Y3305688D1*
X572090Y3308064D1*
X562528D1*
X557720Y3305688D1*
X552967Y3300879D1*
X550535Y3296126D1*
X548158Y3288941D1*
Y3276948D1*
X550535Y3269818D1*
X552967Y3265009D1*
X557720Y3260256D1*
X562528Y3257824D1*
X572090D1*
X576843Y3260256D1*
X581652Y3265009D1*
X584028Y3269818D1*
Y3276948D1*
X572090D1*
X599467Y3308064D2*
Y3257824D1*
X621023D1*
X628208Y3260256D1*
X630584Y3262633D1*
X632961Y3267386D1*
Y3274571D1*
X630584Y3279380D1*
X628208Y3281756D1*
X621023Y3284133D1*
X628208Y3286565D1*
X630584Y3288941D1*
X632961Y3293694D1*
Y3298503D1*
X630584Y3303256D1*
X628208Y3305688D1*
X621023Y3308064D1*
X599467D1*
Y3284133D2*
X621023D1*
X941149Y1011953D2*
X936396Y1016761D1*
X929211Y1019138D1*
X919649D1*
X912464Y1016761D1*
X907656Y1011953D1*
Y1007200D1*
X910088Y1002391D1*
X912464Y1000015D1*
X917217Y997638D1*
X931588Y992829D1*
X936396Y990453D1*
X938773Y988021D1*
X941149Y983268D1*
Y976083D1*
X936396Y971330D1*
X929211Y968898D1*
X919649D1*
X912464Y971330D1*
X907656Y976083D1*
X959020Y1007144D2*
Y1009521D1*
X961397Y1014329D1*
X963773Y1016706D1*
X968582Y1019083D1*
X978144D1*
X982897Y1016706D1*
X985273Y1014329D1*
X987705Y1009521D1*
Y1004768D1*
X985273Y999959D1*
X980520Y992829D1*
X956588Y968898D1*
X990082D1*
X1138238Y2609924D2*
Y2574054D1*
X1140614Y2566869D1*
X1145423Y2562116D1*
X1152608Y2559684D1*
X1157361D1*
X1164546Y2562116D1*
X1169354Y2566869D1*
X1171731Y2574054D1*
Y2609924D1*
X1187170Y2600307D2*
X1191979Y2602739D1*
X1199164Y2609869D1*
Y2559684D1*
X739988Y2609924D2*
Y2574054D1*
X742364Y2566869D1*
X747173Y2562116D1*
X754358Y2559684D1*
X759111D1*
X766296Y2562116D1*
X771105Y2566869D1*
X773481Y2574054D1*
Y2609924D1*
X791352Y2597930D2*
Y2600307D1*
X793729Y2605115D1*
X796105Y2607492D1*
X800914Y2609869D1*
X810476D1*
X815229Y2607492D1*
X817605Y2605115D1*
X820037Y2600307D1*
Y2595554D1*
X817605Y2590745D1*
X812852Y2583616D1*
X788920Y2559684D1*
X822414D1*
X1356603Y1323020D2*
D58*
X1354702Y1324943D1*
X1351828Y1326844D1*
X1348003Y1328768D1*
X1343206Y1329718D1*
X1339381D1*
X1334606Y1328768D1*
X1330781Y1326844D1*
X1327907Y1324943D1*
X1326006Y1323020D1*
X1341791Y1305348D2*
X1343714Y1307271D1*
X1344665Y1309195D1*
Y1312047D1*
X1343714Y1313970D1*
X1341791Y1315871D1*
X1338917Y1316844D1*
X1337015D1*
X1334141Y1315871D1*
X1332240Y1313970D1*
X1331267Y1312047D1*
Y1309195D1*
X1332240Y1307271D1*
X1334141Y1305348D1*
X1356603Y1299172D2*
X1354702Y1297249D1*
X1351828Y1295348D1*
X1348003Y1293424D1*
X1343206Y1292474D1*
X1339381D1*
X1334606Y1293424D1*
X1330781Y1295348D1*
X1327907Y1297249D1*
X1326006Y1299172D1*
X1351363Y1266858D2*
X1331267D1*
Y1260159D1*
X1332240Y1257285D1*
X1334142Y1255362D1*
X1336065Y1254411D1*
X1338917Y1253460D1*
X1343714D1*
X1346588Y1254411D1*
X1348489Y1255362D1*
X1350413Y1257285D1*
X1351363Y1260159D1*
Y1266858D1*
X1344665Y1235811D2*
X1331267D1*
X1341791D2*
X1343714Y1237712D1*
X1344665Y1239635D1*
Y1242487D1*
X1343714Y1244411D1*
X1341791Y1246312D1*
X1338917Y1247285D1*
X1337016D1*
X1334142Y1246312D1*
X1332240Y1244411D1*
X1331267Y1242487D1*
Y1239635D1*
X1332240Y1237712D1*
X1334142Y1235811D1*
X1344665Y1229635D2*
X1331267D1*
X1340840D2*
X1343714Y1226761D1*
X1344665Y1224838D1*
Y1221986D1*
X1343714Y1220062D1*
X1340840Y1219112D1*
X1331267D1*
X1351363Y1212936D2*
X1350413Y1211985D1*
X1351363Y1211013D1*
X1352336Y1211985D1*
X1351363Y1212936D1*
X1344665Y1211985D2*
X1331267D1*
X1338917Y1204837D2*
Y1193363D1*
X1340840D1*
X1342764Y1194314D1*
X1343714Y1195264D1*
X1344665Y1197188D1*
Y1200062D1*
X1343714Y1201963D1*
X1341791Y1203886D1*
X1338917Y1204837D1*
X1337016D1*
X1334142Y1203886D1*
X1332240Y1201963D1*
X1331267Y1200062D1*
Y1197188D1*
X1332240Y1195264D1*
X1334142Y1193363D1*
X1351363Y1187187D2*
X1331267D1*
Y1146273D2*
X1351363D1*
X1331267Y1153922D1*
X1351363Y1161571D1*
X1331267D1*
X1344665Y1140097D2*
X1335092D1*
X1332240Y1139146D1*
X1331267Y1137223D1*
Y1134349D1*
X1332240Y1132448D1*
X1335092Y1129574D1*
X1344665D2*
X1331267D1*
X1344665Y1123398D2*
X1331267D1*
X1338917D2*
X1341791Y1122425D1*
X1343714Y1120524D1*
X1344665Y1118600D1*
Y1115726D1*
Y1109551D2*
X1324569D1*
X1341791D2*
X1343692Y1107627D1*
X1344665Y1105726D1*
Y1102852D1*
X1343692Y1100929D1*
X1341791Y1099027D1*
X1338917Y1098055D1*
X1336993D1*
X1334142Y1099027D1*
X1332218Y1100929D1*
X1331267Y1102852D1*
Y1105726D1*
X1332218Y1107627D1*
X1334142Y1109551D1*
X1351363Y1091879D2*
X1331267D1*
X1340840D2*
X1343714Y1089005D1*
X1344665Y1087082D1*
Y1084208D1*
X1343714Y1082306D1*
X1340840Y1081356D1*
X1331267D1*
X1344665Y1074207D2*
X1331267Y1068481D1*
X1327443Y1070383D1*
X1325519Y1072306D1*
X1324569Y1074207D1*
Y1075180D1*
X1344665Y1062733D2*
X1331267Y1068481D1*
X1346566Y1036144D2*
X1347517D1*
X1349440Y1035194D1*
X1350391Y1034243D1*
X1351341Y1032320D1*
Y1028495D1*
X1350391Y1026594D1*
X1349440Y1025643D1*
X1347517Y1024670D1*
X1345615D1*
X1343692Y1025643D1*
X1340840Y1027544D1*
X1331267Y1037117D1*
Y1023720D1*
X1351341Y1011796D2*
X1350391Y1014670D1*
X1347517Y1016593D1*
X1342741Y1017544D1*
X1339867D1*
X1335092Y1016593D1*
X1332218Y1014670D1*
X1331267Y1011796D1*
Y1009895D1*
X1332218Y1007021D1*
X1335092Y1005120D1*
X1339867Y1004147D1*
X1342741D1*
X1347517Y1005120D1*
X1350391Y1007021D1*
X1351341Y1009895D1*
Y1011796D1*
X1347517Y1005120D2*
X1335092Y1016593D1*
X1346566Y996998D2*
X1347517D1*
X1349440Y996048D1*
X1350391Y995097D1*
X1351341Y993174D1*
Y989349D1*
X1350391Y987448D1*
X1349440Y986497D1*
X1347517Y985524D1*
X1345615D1*
X1343692Y986497D1*
X1340840Y988398D1*
X1331267Y997971D1*
Y984574D1*
X1351341Y972650D2*
X1350391Y975524D1*
X1347517Y977447D1*
X1342741Y978398D1*
X1339867D1*
X1335092Y977447D1*
X1332218Y975524D1*
X1331267Y972650D1*
Y970749D1*
X1332218Y967875D1*
X1335092Y965973D1*
X1339867Y965001D1*
X1342741D1*
X1347517Y965973D1*
X1350391Y967875D1*
X1351341Y970749D1*
Y972650D1*
X1347517Y965973D2*
X1335092Y977447D1*
M02*
